<?xml version="1.0" encoding="utf-8"?>
<!-- created with bpmn-js / http://bpmn.io -->
<!DOCTYPE svg PUBLIC "-//W3C//DTD SVG 1.1//EN" "http://www.w3.org/Graphics/SVG/1.1/DTD/svg11.dtd">
<svg xmlns="http://www.w3.org/2000/svg" xmlns:xlink="http://www.w3.org/1999/xlink" width="1274" height="546" viewBox="140 74 1274 546" version="1.1"><defs><marker id="sequenceflow-end-white-black-5j6altymvsmyem31pyyviiq8e" viewBox="0 0 20 20" refX="11" refY="10" markerWidth="10" markerHeight="10" orient="auto"><path d="M 1 5 L 11 10 L 1 15 Z" style="fill: black; stroke-width: 1px; stroke-linecap: round; stroke-dasharray: 10000, 1; stroke: black;"/></marker></defs><g class="djs-group"><g class="djs-element djs-shape" data-element-id="TextAnnotation_1row2t5" style="display: block;" transform="matrix(1 0 0 1 410 80)"><g class="djs-visual"><rect x="0" y="0" width="229" height="70" rx="0" ry="0" style="stroke: none; stroke-width: 2px; fill: none;"/><path d="m 0, 0 m 10,0 l -10,0 l 0,70 l 10,0" style="fill: none; stroke-width: 2px; stroke: black;"/><text lineHeight="1.2" class="djs-label" style="font-family: Arial, sans-serif; font-size: 12px; font-weight: normal; fill: black;"><tspan x="5" y="15.799999999999999">Na tabela FNTabelaValor é armazenado</tspan><tspan x="5" y="30.199999999999996">um registro para cada plano de cada </tspan><tspan x="5" y="44.599999999999994">turma, informando o ano que se refere e</tspan><tspan x="5" y="58.99999999999999">os valores de matrícula e renovação</tspan></text></g><rect class="djs-hit djs-hit-all" x="0" y="0" width="229" height="70" style="fill: none; stroke-opacity: 0; stroke: white; stroke-width: 15px;"/><rect x="-6" y="-6" width="241" height="82" class="djs-outline" style="fill: none;"/></g></g><g class="djs-group"><g class="djs-element djs-shape" data-element-id="TextAnnotation_1lx8arn" style="display: block;" transform="matrix(1 0 0 1 570 200)"><g class="djs-visual"><rect x="0" y="0" width="191" height="70" rx="0" ry="0" style="stroke: none; stroke-width: 2px; fill: none;"/><path d="m 0, 0 m 10,0 l -10,0 l 0,70 l 10,0" style="fill: none; stroke-width: 2px; stroke: black;"/><text lineHeight="1.2" class="djs-label" style="font-family: Arial, sans-serif; font-size: 12px; font-weight: normal; fill: black;"><tspan x="5" y="15.799999999999999">Este débito é gerado na </tspan><tspan x="5" y="30.199999999999996">FNDebitos e possui uma coluna </tspan><tspan x="5" y="44.599999999999994">informando a FNTabelaValor que </tspan><tspan x="5" y="58.99999999999999">originou seus valores</tspan></text></g><rect class="djs-hit djs-hit-all" x="0" y="0" width="191" height="70" style="fill: none; stroke-opacity: 0; stroke: white; stroke-width: 15px;"/><rect x="-6" y="-6" width="203" height="82" class="djs-outline" style="fill: none;"/></g></g><g class="djs-group"><g class="djs-element djs-shape" data-element-id="TextAnnotation_02xvxm4" style="display: block;" transform="matrix(1 0 0 1 410 510)"><g class="djs-visual"><rect x="0" y="0" width="243" height="69" rx="0" ry="0" style="stroke: none; stroke-width: 2px; fill: none;"/><path d="m 0, 0 m 10,0 l -10,0 l 0,69 l 10,0" style="fill: none; stroke-width: 2px; stroke: black;"/><text lineHeight="1.2" class="djs-label" style="font-family: Arial, sans-serif; font-size: 12px; font-weight: normal; fill: black;"><tspan x="5" y="15.799999999999999">Na tabela FNTabelaValorVencimento, </tspan><tspan x="5" y="30.199999999999996">vinculada à FNTabelaValor, é armazenado </tspan><tspan x="5" y="44.599999999999994">um registro para cada mensalidade que </tspan><tspan x="5" y="58.99999999999999">será posteriormente gerada.</tspan></text></g><rect class="djs-hit djs-hit-all" x="0" y="0" width="243" height="69" style="fill: none; stroke-opacity: 0; stroke: white; stroke-width: 15px;"/><rect x="-6" y="-6" width="255" height="81" class="djs-outline" style="fill: none;"/></g></g><g class="djs-group"><g class="djs-element djs-shape" data-element-id="TextAnnotation_1bzjre1" style="display: block;" transform="matrix(1 0 0 1 730 530)"><g class="djs-visual"><rect x="0" y="0" width="216" height="84" rx="0" ry="0" style="stroke: none; stroke-width: 2px; fill: none;"/><path d="m 0, 0 m 10,0 l -10,0 l 0,84 l 10,0" style="fill: none; stroke-width: 2px; stroke: black;"/><text lineHeight="1.2" class="djs-label" style="font-family: Arial, sans-serif; font-size: 12px; font-weight: normal; fill: black;"><tspan x="5" y="15.799999999999999">As mensalidades são geradas na </tspan><tspan x="5" y="30.199999999999996">FNDebitos e seus valores e datas são</tspan><tspan x="5" y="44.599999999999994">obtidos da FNTabelaValorVencimento </tspan><tspan x="5" y="58.99999999999999">que está vinculada</tspan></text></g><rect class="djs-hit djs-hit-all" x="0" y="0" width="216" height="84" style="fill: none; stroke-opacity: 0; stroke: white; stroke-width: 15px;"/><rect x="-6" y="-6" width="228" height="96" class="djs-outline" style="fill: none;"/></g></g><g class="djs-group"><g class="djs-element djs-shape" data-element-id="TextAnnotation_0e98bnh" style="display: block;" transform="matrix(1 0 0 1 250 215)"><g class="djs-visual"><rect x="0" y="0" width="100" height="55" rx="0" ry="0" style="stroke: none; stroke-width: 2px; fill: none;"/><path d="m 0, 0 m 10,0 l -10,0 l 0,55 l 10,0" style="fill: none; stroke-width: 2px; stroke: black;"/><text lineHeight="1.2" class="djs-label" style="font-family: Arial, sans-serif; font-size: 12px; font-weight: normal; fill: black;"><tspan x="5" y="15.799999999999999">Estes valores </tspan><tspan x="5" y="30.199999999999996">são atualizados</tspan><tspan x="5" y="44.599999999999994">anualmente</tspan></text></g><rect class="djs-hit djs-hit-all" x="0" y="0" width="100" height="55" style="fill: none; stroke-opacity: 0; stroke: white; stroke-width: 15px;"/><rect x="-6" y="-6" width="112" height="67" class="djs-outline" style="fill: none;"/></g></g><g class="djs-group"><g class="djs-element djs-shape" data-element-id="TextAnnotation_1ykkrh6" style="display: block;" transform="matrix(1 0 0 1 890 150)"><g class="djs-visual"><rect x="0" y="0" width="202" height="54" rx="0" ry="0" style="stroke: none; stroke-width: 2px; fill: none;"/><path d="m 0, 0 m 10,0 l -10,0 l 0,54 l 10,0" style="fill: none; stroke-width: 2px; stroke: black;"/><text lineHeight="1.2" class="djs-label" style="font-family: Arial, sans-serif; font-size: 12px; font-weight: normal; fill: black;"><tspan x="5" y="15.799999999999999">Esta bolsa é cadastrada na coluna</tspan><tspan x="5" y="30.199999999999996">Bolsa da FNDebitos e pode </tspan><tspan x="5" y="44.599999999999994">armazenar valores de 0 a 100</tspan></text></g><rect class="djs-hit djs-hit-all" x="0" y="0" width="202" height="54" style="fill: none; stroke-opacity: 0; stroke: white; stroke-width: 15px;"/><rect x="-6" y="-6" width="214" height="66" class="djs-outline" style="fill: none;"/></g></g><g class="djs-group"><g class="djs-element djs-shape" data-element-id="TextAnnotation_1eem8c5" style="display: block;" transform="matrix(1 0 0 1 1050 490)"><g class="djs-visual"><rect x="0" y="0" width="210" height="50" rx="0" ry="0" style="stroke: none; stroke-width: 2px; fill: none;"/><path d="m 0, 0 m 10,0 l -10,0 l 0,50 l 10,0" style="fill: none; stroke-width: 2px; stroke: black;"/><text lineHeight="1.2" class="djs-label" style="font-family: Arial, sans-serif; font-size: 12px; font-weight: normal; fill: black;"><tspan x="5" y="15.799999999999999">A dedução é subtraída do valor do </tspan><tspan x="5" y="30.199999999999996">débito, enquanto que o acréscimo é</tspan><tspan x="5" y="44.599999999999994">somado.</tspan></text></g><rect class="djs-hit djs-hit-all" x="0" y="0" width="210" height="50" style="fill: none; stroke-opacity: 0; stroke: white; stroke-width: 15px;"/><rect x="-6" y="-6" width="222" height="62" class="djs-outline" style="fill: none;"/></g></g><g class="djs-group"><g class="djs-element djs-connection" data-element-id="Flow_1qlvogg" style="display: block;"><g class="djs-visual"><path d="m  192,389L250,389 " style="fill: none; stroke-width: 2px; stroke: black; stroke-linejoin: round; marker-end: url('#sequenceflow-end-white-black-5j6altymvsmyem31pyyviiq8e');"/></g><polyline points="192,389 250,389 " class="djs-hit djs-hit-stroke" style="fill: none; stroke-opacity: 0; stroke: white; stroke-width: 15px;"/><rect x="186" y="383" width="70" height="12" class="djs-outline" style="fill: none;"/></g></g><g class="djs-group"><g class="djs-element djs-connection" data-element-id="Flow_0fwbvk5" style="display: block;"><g class="djs-visual"><path d="m  350,389L410,389 " style="fill: none; stroke-width: 2px; stroke: black; stroke-linejoin: round; marker-end: url('#sequenceflow-end-white-black-5j6altymvsmyem31pyyviiq8e');"/></g><polyline points="350,389 410,389 " class="djs-hit djs-hit-stroke" style="fill: none; stroke-opacity: 0; stroke: white; stroke-width: 15px;"/><rect x="344" y="383" width="72" height="12" class="djs-outline" style="fill: none;"/></g></g><g class="djs-group"><g class="djs-element djs-connection" data-element-id="Flow_0ukuhrb" style="display: block;"><g class="djs-visual"><path d="m  510,389L570,389 " style="fill: none; stroke-width: 2px; stroke: black; stroke-linejoin: round; marker-end: url('#sequenceflow-end-white-black-5j6altymvsmyem31pyyviiq8e');"/></g><polyline points="510,389 570,389 " class="djs-hit djs-hit-stroke" style="fill: none; stroke-opacity: 0; stroke: white; stroke-width: 15px;"/><rect x="504" y="383" width="72" height="12" class="djs-outline" style="fill: none;"/></g></g><g class="djs-group"><g class="djs-element djs-connection" data-element-id="Flow_0y7pm8q" style="display: block;"><g class="djs-visual"><path d="m  670,389L730,389 " style="fill: none; stroke-width: 2px; stroke: black; stroke-linejoin: round; marker-end: url('#sequenceflow-end-white-black-5j6altymvsmyem31pyyviiq8e');"/></g><polyline points="670,389 730,389 " class="djs-hit djs-hit-stroke" style="fill: none; stroke-opacity: 0; stroke: white; stroke-width: 15px;"/><rect x="664" y="383" width="72" height="12" class="djs-outline" style="fill: none;"/></g></g><g class="djs-group"><g class="djs-element djs-connection" data-element-id="Flow_086q6i0" style="display: block;"><g class="djs-visual"><path d="m  830,389L890,389 " style="fill: none; stroke-width: 2px; stroke: black; stroke-linejoin: round; marker-end: url('#sequenceflow-end-white-black-5j6altymvsmyem31pyyviiq8e');"/></g><polyline points="830,389 890,389 " class="djs-hit djs-hit-stroke" style="fill: none; stroke-opacity: 0; stroke: white; stroke-width: 15px;"/><rect x="824" y="383" width="72" height="12" class="djs-outline" style="fill: none;"/></g></g><g class="djs-group"><g class="djs-element djs-connection" data-element-id="Flow_0qz9pjb" style="display: block;"><g class="djs-visual"><path d="m  990,389L1050,389 " style="fill: none; stroke-width: 2px; stroke: black; stroke-linejoin: round; marker-end: url('#sequenceflow-end-white-black-5j6altymvsmyem31pyyviiq8e');"/></g><polyline points="990,389 1050,389 " class="djs-hit djs-hit-stroke" style="fill: none; stroke-opacity: 0; stroke: white; stroke-width: 15px;"/><rect x="984" y="383" width="72" height="12" class="djs-outline" style="fill: none;"/></g></g><g class="djs-group"><g class="djs-element djs-connection" data-element-id="Flow_0vwzv2b" style="display: block;"><g class="djs-visual"><path d="m  1150,389L1210,389 " style="fill: none; stroke-width: 2px; stroke: black; stroke-linejoin: round; marker-end: url('#sequenceflow-end-white-black-5j6altymvsmyem31pyyviiq8e');"/></g><polyline points="1150,389 1210,389 " class="djs-hit djs-hit-stroke" style="fill: none; stroke-opacity: 0; stroke: white; stroke-width: 15px;"/><rect x="1144" y="383" width="72" height="12" class="djs-outline" style="fill: none;"/></g></g><g class="djs-group"><g class="djs-element djs-connection" data-element-id="Flow_146lln9" style="display: block;"><g class="djs-visual"><path d="m  1310,389L1372,389 " style="fill: none; stroke-width: 2px; stroke: black; stroke-linejoin: round; marker-end: url('#sequenceflow-end-white-black-5j6altymvsmyem31pyyviiq8e');"/></g><polyline points="1310,389 1372,389 " class="djs-hit djs-hit-stroke" style="fill: none; stroke-opacity: 0; stroke: white; stroke-width: 15px;"/><rect x="1304" y="383" width="74" height="12" class="djs-outline" style="fill: none;"/></g></g><g class="djs-group"><g class="djs-element djs-shape" data-element-id="StartEvent_1917mn6" style="display: block;" transform="matrix(1 0 0 1 156 371)"><g class="djs-visual"><circle cx="18" cy="18" r="18" style="stroke: black; stroke-width: 2px; fill: white; fill-opacity: 0.95;"/></g><rect class="djs-hit djs-hit-all" x="0" y="0" width="36" height="36" style="fill: none; stroke-opacity: 0; stroke: white; stroke-width: 15px;"/><rect x="-6" y="-6" width="48" height="48" class="djs-outline" style="fill: none;"/></g></g><g class="djs-group"><g class="djs-element djs-shape" data-element-id="Activity_0e93mnk" style="display: block;" transform="matrix(1 0 0 1 250 349)"><g class="djs-visual"><rect x="0" y="0" width="100" height="80" rx="10" ry="10" style="stroke: black; stroke-width: 2px; fill: white; fill-opacity: 0.95;"/><text lineHeight="1.2" class="djs-label" style="font-family: Arial, sans-serif; font-size: 12px; font-weight: normal; fill: black;"><tspan x="15.15234375" y="14.799999999999999">1. Financeiro </tspan><tspan x="16.8134765625" y="29.199999999999996">envia para o </tspan><tspan x="23.3125" y="43.599999999999994">Chicão os </tspan><tspan x="7.9765625" y="57.99999999999999">valores de cada </tspan><tspan x="13.6484375" y="72.39999999999999">turma e plano</tspan></text></g><rect class="djs-hit djs-hit-all" x="0" y="0" width="100" height="80" style="fill: none; stroke-opacity: 0; stroke: white; stroke-width: 15px;"/><rect x="-6" y="-6" width="112" height="92" class="djs-outline" style="fill: none;"/></g></g><g class="djs-group"><g class="djs-element djs-shape" data-element-id="Activity_1pftwe1" style="display: block;" transform="matrix(1 0 0 1 410 349)"><g class="djs-visual"><rect x="0" y="0" width="100" height="80" rx="10" ry="10" style="stroke: black; stroke-width: 2px; fill: white; fill-opacity: 0.95;"/><text lineHeight="1.2" class="djs-label" style="font-family: Arial, sans-serif; font-size: 12px; font-weight: normal; fill: black;"><tspan x="24.4892578125" y="14.799999999999999">2. Chicão </tspan><tspan x="18.4833984375" y="29.199999999999996">cadastra no </tspan><tspan x="25.6484375" y="43.599999999999994">banco os </tspan><tspan x="31.15625" y="57.99999999999999">valores </tspan><tspan x="20.3125" y="72.39999999999999">informados</tspan></text></g><rect class="djs-hit djs-hit-all" x="0" y="0" width="100" height="80" style="fill: none; stroke-opacity: 0; stroke: white; stroke-width: 15px;"/><rect x="-6" y="-6" width="112" height="92" class="djs-outline" style="fill: none;"/></g></g><g class="djs-group"><g class="djs-element djs-shape" data-element-id="Activity_1ihj4ii" style="display: block;" transform="matrix(1 0 0 1 570 349)"><g class="djs-visual"><rect x="0" y="0" width="100" height="80" rx="10" ry="10" style="stroke: black; stroke-width: 2px; fill: white; fill-opacity: 0.95;"/><text lineHeight="1.2" class="djs-label" style="font-family: Arial, sans-serif; font-size: 12px; font-weight: normal; fill: black;"><tspan x="14.4794921875" y="14.799999999999999">3. Ao realizar </tspan><tspan x="11.82421875" y="29.199999999999996">uma matrícula </tspan><tspan x="6.8056640625" y="43.599999999999994">ou renovação, o</tspan><tspan x="5.6484375" y="57.99999999999999">sistema gera um</tspan><tspan x="33.4892578125" y="72.39999999999999">débito</tspan></text></g><rect class="djs-hit djs-hit-all" x="0" y="0" width="100" height="80" style="fill: none; stroke-opacity: 0; stroke: white; stroke-width: 15px;"/><rect x="-6" y="-6" width="112" height="92" class="djs-outline" style="fill: none;"/></g></g><g class="djs-group"><g class="djs-element djs-shape" data-element-id="Activity_15ipa56" style="display: block;" transform="matrix(1 0 0 1 730 349)"><g class="djs-visual"><rect x="0" y="0" width="100" height="80" rx="10" ry="10" style="stroke: black; stroke-width: 2px; fill: white; fill-opacity: 0.95;"/><text lineHeight="1.2" class="djs-label" style="font-family: Arial, sans-serif; font-size: 12px; font-weight: normal; fill: black;"><tspan x="8.806640625" y="14.799999999999999">4. Quando este </tspan><tspan x="13.470703125" y="29.199999999999996">débito é pago </tspan><tspan x="5.1298828125" y="43.599999999999994">ou abonado, são</tspan><tspan x="20.3125" y="57.99999999999999">geradas as </tspan><tspan x="12.9765625" y="72.39999999999999">mensalidades</tspan></text></g><rect class="djs-hit djs-hit-all" x="0" y="0" width="100" height="80" style="fill: none; stroke-opacity: 0; stroke: white; stroke-width: 15px;"/><rect x="-6" y="-6" width="112" height="92" class="djs-outline" style="fill: none;"/></g></g><g class="djs-group"><g class="djs-element djs-shape" data-element-id="StartEvent_1917mn6_label" style="display: block;" transform="matrix(1 0 0 1 146 414)"><g class="djs-visual"><text lineHeight="1.2" class="djs-label" style="font-family: Arial, sans-serif; font-size: 11px; font-weight: normal; fill: black;"><tspan x="0" y="9.899999999999999">Valores dos </tspan><tspan x="10.400634765625" y="23.099999999999998">débitos</tspan></text></g><rect class="djs-hit djs-hit-all" x="0" y="0" width="57" height="27" style="fill: none; stroke-opacity: 0; stroke: white; stroke-width: 15px;"/><rect x="-6" y="-6" width="69" height="39" class="djs-outline" style="fill: none;"/></g></g><g class="djs-group"><g class="djs-element djs-shape" data-element-id="Activity_0067rgz" style="display: block;" transform="matrix(1 0 0 1 1050 349)"><g class="djs-visual"><rect x="0" y="0" width="100" height="80" rx="10" ry="10" style="stroke: black; stroke-width: 2px; fill: white; fill-opacity: 0.95;"/><text lineHeight="1.2" class="djs-label" style="font-family: Arial, sans-serif; font-size: 12px; font-weight: normal; fill: black;"><tspan x="6.140625" y="14.799999999999999">6. Caso o débito</tspan><tspan x="10.6337890625" y="29.199999999999996">tenha dedução </tspan><tspan x="7.4853515625" y="43.599999999999994">ou acréscimo, é </tspan><tspan x="16.3046875" y="57.99999999999999">aplicado aos </tspan><tspan x="31.15625" y="72.39999999999999">valores</tspan></text></g><rect class="djs-hit djs-hit-all" x="0" y="0" width="100" height="80" style="fill: none; stroke-opacity: 0; stroke: white; stroke-width: 15px;"/><rect x="-6" y="-6" width="112" height="92" class="djs-outline" style="fill: none;"/></g></g><g class="djs-group"><g class="djs-element djs-shape" data-element-id="Activity_1vkbeaj" style="display: block;" transform="matrix(1 0 0 1 1210 349)"><g class="djs-visual"><rect x="0" y="0" width="100" height="80" rx="10" ry="10" style="stroke: black; stroke-width: 2px; fill: white; fill-opacity: 0.95;"/><text lineHeight="1.2" class="djs-label" style="font-family: Arial, sans-serif; font-size: 12px; font-weight: normal; fill: black;"><tspan x="11.1494140625" y="14.799999999999999">7. O valor final </tspan><tspan x="20.14453125" y="29.199999999999996">do débito é </tspan><tspan x="20.478515625" y="43.599999999999994">definido de </tspan><tspan x="13.4853515625" y="57.99999999999999">acordo com a </tspan><tspan x="21.9765625" y="72.39999999999999">data atual.</tspan></text></g><rect class="djs-hit djs-hit-all" x="0" y="0" width="100" height="80" style="fill: none; stroke-opacity: 0; stroke: white; stroke-width: 15px;"/><rect x="-6" y="-6" width="112" height="92" class="djs-outline" style="fill: none;"/></g></g><g class="djs-group"><g class="djs-element djs-shape" data-element-id="Event_01mg4x8" style="display: block;" transform="matrix(1 0 0 1 1372 371)"><g class="djs-visual"><circle cx="18" cy="18" r="18" style="stroke: black; stroke-width: 4px; fill: white; fill-opacity: 0.95;"/></g><rect class="djs-hit djs-hit-all" x="0" y="0" width="36" height="36" style="fill: none; stroke-opacity: 0; stroke: white; stroke-width: 15px;"/><rect x="-6" y="-6" width="48" height="48" class="djs-outline" style="fill: none;"/></g></g><g class="djs-group"><g class="djs-element djs-connection" data-element-id="Association_0squumd" style="display: block;"><g class="djs-visual"><polyline points="460,349 460,150 " style="fill: none; stroke: black; stroke-width: 2px; stroke-dasharray: 0.5, 5; stroke-linecap: round; stroke-linejoin: round;"/></g><polyline points="460,349 460,150 " class="djs-hit djs-hit-stroke" style="fill: none; stroke-opacity: 0; stroke: white; stroke-width: 15px;"/><rect x="454" y="144" width="12" height="211" class="djs-outline" style="fill: none;"/></g></g><g class="djs-group"><g class="djs-element djs-connection" data-element-id="Association_0frgx9f" style="display: block;"><g class="djs-visual"><polyline points="620,349 620,270 " style="fill: none; stroke: black; stroke-width: 2px; stroke-dasharray: 0.5, 5; stroke-linecap: round; stroke-linejoin: round;"/></g><polyline points="620,349 620,270 " class="djs-hit djs-hit-stroke" style="fill: none; stroke-opacity: 0; stroke: white; stroke-width: 15px;"/><rect x="614" y="264" width="12" height="91" class="djs-outline" style="fill: none;"/></g></g><g class="djs-group"><g class="djs-element djs-connection" data-element-id="Association_0m1tr6g" style="display: block;"><g class="djs-visual"><polyline points="460,429 460,510 " style="fill: none; stroke: black; stroke-width: 2px; stroke-dasharray: 0.5, 5; stroke-linecap: round; stroke-linejoin: round;"/></g><polyline points="460,429 460,510 " class="djs-hit djs-hit-stroke" style="fill: none; stroke-opacity: 0; stroke: white; stroke-width: 15px;"/><rect x="454" y="423" width="12" height="93" class="djs-outline" style="fill: none;"/></g></g><g class="djs-group"><g class="djs-element djs-connection" data-element-id="Association_046jdsj" style="display: block;"><g class="djs-visual"><polyline points="780,429 780,530 " style="fill: none; stroke: black; stroke-width: 2px; stroke-dasharray: 0.5, 5; stroke-linecap: round; stroke-linejoin: round;"/></g><polyline points="780,429 780,530 " class="djs-hit djs-hit-stroke" style="fill: none; stroke-opacity: 0; stroke: white; stroke-width: 15px;"/><rect x="774" y="423" width="12" height="113" class="djs-outline" style="fill: none;"/></g></g><g class="djs-group"><g class="djs-element djs-shape" data-element-id="Event_01mg4x8_label" style="display: block;" transform="matrix(1 0 0 1 1380 343)"><g class="djs-visual"><text lineHeight="1.2" class="djs-label" style="font-family: Arial, sans-serif; font-size: 11px; font-weight: normal; fill: black;"><tspan x="0" y="9.899999999999999">Fim</tspan></text></g><rect class="djs-hit djs-hit-all" x="0" y="0" width="19" height="14" style="fill: none; stroke-opacity: 0; stroke: white; stroke-width: 15px;"/><rect x="-6" y="-6" width="31" height="26" class="djs-outline" style="fill: none;"/></g></g><g class="djs-group"><g class="djs-element djs-connection" data-element-id="Association_1q3vljr" style="display: block;"><g class="djs-visual"><polyline points="300,349 300,270 " style="fill: none; stroke: black; stroke-width: 2px; stroke-dasharray: 0.5, 5; stroke-linecap: round; stroke-linejoin: round;"/></g><polyline points="300,349 300,270 " class="djs-hit djs-hit-stroke" style="fill: none; stroke-opacity: 0; stroke: white; stroke-width: 15px;"/><rect x="294" y="264" width="12" height="91" class="djs-outline" style="fill: none;"/></g></g><g class="djs-group"><g class="djs-element djs-connection" data-element-id="Association_0y5seb6" style="display: block;"><g class="djs-visual"><polyline points="940,349 940,204 " style="fill: none; stroke: black; stroke-width: 2px; stroke-dasharray: 0.5, 5; stroke-linecap: round; stroke-linejoin: round;"/></g><polyline points="940,349 940,204 " class="djs-hit djs-hit-stroke" style="fill: none; stroke-opacity: 0; stroke: white; stroke-width: 15px;"/><rect x="934" y="198" width="12" height="157" class="djs-outline" style="fill: none;"/></g></g><g class="djs-group"><g class="djs-element djs-shape" data-element-id="Activity_1acuz9w" style="display: block;" transform="matrix(1 0 0 1 890 349)"><g class="djs-visual"><rect x="0" y="0" width="100" height="80" rx="10" ry="10" style="stroke: black; stroke-width: 2px; fill: white; fill-opacity: 0.95;"/><text lineHeight="1.2" class="djs-label" style="font-family: Arial, sans-serif; font-size: 12px; font-weight: normal; fill: black;"><tspan x="9.146484375" y="22">5. Aplicar bolsa</tspan><tspan x="19.3125" y="36.4">aos valores </tspan><tspan x="14.14453125" y="50.8">caso o débito </tspan><tspan x="14.478515625" y="65.19999999999999">possua bolsa</tspan></text><rect x="0" y="0" width="14" height="14" rx="0" ry="0" style="stroke: black; stroke-width: 1px; fill: white;" transform="matrix(1 0 0 1 42.5 60)"/><path d="m42.5,60 m 7,2 l 0,10 m -5,-5 l 10,0" data-marker="sub-process" style="fill: white; stroke-width: 2px; stroke: black;"/></g><rect x="-6" y="-6" width="112" height="92" class="djs-outline" style="fill: none;"/><rect class="djs-hit djs-hit-all" x="0" y="0" width="100" height="80" style="fill: none; stroke-opacity: 0; stroke: white; stroke-width: 15px;"/></g></g><g class="djs-group"><g class="djs-element djs-connection" data-element-id="Association_11u2l5p" style="display: block;"><g class="djs-visual"><polyline points="1100,429 1100,490 " style="fill: none; stroke: black; stroke-width: 2px; stroke-dasharray: 0.5, 5; stroke-linecap: round; stroke-linejoin: round;"/></g><polyline points="1100,429 1100,490 " class="djs-hit djs-hit-stroke" style="fill: none; stroke-opacity: 0; stroke: white; stroke-width: 15px;"/><rect x="1094" y="423" width="12" height="73" class="djs-outline" style="fill: none;"/></g></g></svg>