<svg width="27" height="17" viewBox="0 0 27 17" fill="none" xmlns="http://www.w3.org/2000/svg">
<path d="M16.0012 4.59843C16.0007 4.72999 15.9925 4.861 15.9786 4.99175C15.9759 5.01789 15.9593 5.13447 15.9783 4.99964C15.9734 5.03369 15.9677 5.06747 15.9623 5.10124C15.9489 5.1816 15.9323 5.26113 15.9146 5.34067C15.8833 5.48012 15.8443 5.61795 15.801 5.75441C15.779 5.82387 15.7547 5.89251 15.7299 5.96088C15.7174 5.9952 15.704 6.02952 15.691 6.06356C15.6825 6.08508 15.6193 6.23598 15.6692 6.11995C15.5482 6.40295 15.4006 6.67424 15.2326 6.93191C15.1925 6.9932 15.1506 7.05312 15.1078 7.1125C15.0866 7.14192 15.0648 7.17106 15.0427 7.19993C15.1152 7.10406 15.0408 7.2013 15.028 7.21709C14.9316 7.33694 14.8273 7.45052 14.718 7.55893C14.6687 7.60796 14.6175 7.65481 14.5655 7.70084C14.5393 7.72399 14.3721 7.85746 14.477 7.77738C14.3626 7.86482 14.2411 7.94244 14.1147 8.01163C14.0578 8.04295 13.9992 8.07073 13.9404 8.09743C14.0616 8.04268 13.9608 8.08844 13.9355 8.09825C13.9058 8.10968 13.8756 8.12004 13.8453 8.13011C13.7851 8.15054 13.7238 8.16688 13.6623 8.18159C13.6315 8.18895 13.6005 8.19494 13.5694 8.20093C13.4318 8.22735 13.6261 8.19657 13.5394 8.20611C13.4128 8.22 13.2848 8.21782 13.1581 8.20611C13.0459 8.19576 13.2706 8.22408 13.1595 8.20638C13.1281 8.20148 13.0974 8.19494 13.0663 8.18868C12.9939 8.17369 12.9228 8.15299 12.8525 8.13039C12.8223 8.12058 12.7923 8.10941 12.7623 8.09852C12.7373 8.08926 12.6351 8.04459 12.7574 8.0977C12.6981 8.07182 12.6403 8.04241 12.5831 8.0119C12.4562 7.94408 12.3361 7.86373 12.2208 7.77765C12.3263 7.85664 12.1587 7.72427 12.1323 7.70111C12.0798 7.65563 12.0294 7.60769 11.9798 7.5592C11.8695 7.45189 11.7673 7.3364 11.6698 7.21737C11.6567 7.20157 11.5818 7.1046 11.6551 7.20021C11.633 7.17133 11.6115 7.14192 11.59 7.11277C11.547 7.05367 11.5058 6.9932 11.4653 6.93218C11.377 6.79899 11.2964 6.66062 11.2207 6.5198C11.1507 6.3896 11.0875 6.25559 11.0284 6.12022C11.0768 6.23162 11.0275 6.11722 11.0199 6.09816C11.0063 6.06411 10.9932 6.02979 10.9802 5.99547C10.9499 5.91593 10.9227 5.83558 10.8963 5.75468C10.8521 5.61877 10.8148 5.4804 10.7827 5.34094C10.7669 5.27284 10.7535 5.2042 10.741 5.13556C10.7347 5.10179 10.7293 5.06774 10.7241 5.03369C10.7162 4.98003 10.7173 4.98875 10.7268 5.05902C10.7238 5.03669 10.7214 5.01435 10.7187 4.99202C10.7034 4.86155 10.6966 4.72999 10.6961 4.5987C10.6958 4.52243 10.6993 4.44617 10.7042 4.37017C10.7067 4.33259 10.7105 4.295 10.7143 4.25768C10.7208 4.20293 10.7198 4.20783 10.7113 4.27293C10.7149 4.24842 10.7187 4.22391 10.7228 4.19939C10.7464 4.05421 10.7829 3.91121 10.8271 3.77094C10.8489 3.70148 10.8742 3.63338 10.9006 3.56583C10.9456 3.45116 10.8589 3.65899 10.9093 3.54677C10.9289 3.50291 10.9502 3.45988 10.972 3.41711C11.0365 3.2891 11.112 3.16707 11.1932 3.04913C11.2133 3.01971 11.2346 2.99111 11.2558 2.96251C11.1833 3.06002 11.2558 2.9636 11.2694 2.94699C11.322 2.8827 11.3781 2.82115 11.4353 2.76122C11.5336 2.65826 11.6407 2.56375 11.7521 2.47495C11.6567 2.55067 11.7524 2.47631 11.7698 2.46378C11.7987 2.44281 11.8283 2.42293 11.858 2.40304C11.9272 2.35646 11.9991 2.3137 12.0719 2.27284C12.1242 2.24343 12.1775 2.21646 12.2315 2.19004C12.253 2.17969 12.2748 2.16934 12.2968 2.15953C12.4085 2.10805 12.2018 2.19739 12.3159 2.15082C12.4398 2.10043 12.5676 2.06039 12.6967 2.02661C12.7561 2.01109 12.8163 1.99828 12.8765 1.9863C12.9059 1.98058 13.1023 1.95198 12.9704 1.96859C13.1085 1.95116 13.248 1.94544 13.3872 1.94626C13.4506 1.94653 13.5138 1.95007 13.5773 1.95416C13.607 1.95607 13.8064 1.97976 13.6745 1.96124C13.8088 1.97976 13.9412 2.00945 14.0717 2.04541C14.1302 2.06148 14.1882 2.08054 14.2457 2.09988C14.28 2.11159 14.3141 2.1244 14.3481 2.1372C14.3683 2.14482 14.4813 2.19331 14.368 2.14428C14.489 2.19658 14.6055 2.25868 14.7188 2.32596C14.7701 2.35646 14.8199 2.38915 14.8695 2.42238C14.8929 2.43818 15.0457 2.55231 14.9457 2.47441C15.0487 2.55449 15.1454 2.64274 15.2377 2.73507C15.3216 2.81897 15.3993 2.90912 15.4733 3.00201C15.3946 2.90286 15.509 3.05458 15.5254 3.07827C15.5659 3.13711 15.6035 3.19812 15.64 3.25968C15.7013 3.36264 15.7547 3.47023 15.8035 3.57973C15.7512 3.4626 15.8258 3.64019 15.8359 3.6677C15.8609 3.73634 15.8825 3.80607 15.9026 3.87608C15.9402 4.00627 15.9666 4.13947 15.9868 4.27321C15.9669 4.14192 15.9917 4.34048 15.9941 4.37045C15.999 4.44617 16.0009 4.52243 16.0012 4.59843C16.0028 4.85828 16.2169 5.07509 16.4779 5.07509C16.7366 5.07509 16.9562 4.85828 16.9545 4.59843C16.9464 3.25505 16.1837 1.9893 14.979 1.38216C13.72 0.748058 12.2121 0.918568 11.106 1.77847C10.5836 2.18486 10.2082 2.73344 9.96771 3.34575C9.72421 3.96623 9.70623 4.63574 9.80401 5.28673C9.89744 5.90885 10.1317 6.51544 10.4321 7.06565C10.7287 7.6085 11.1264 8.12276 11.6156 8.50518C12.1182 8.89795 12.7008 9.16325 13.3482 9.1687C13.9913 9.17415 14.584 8.89332 15.0808 8.50518C15.5719 8.1214 15.9631 7.60796 16.2643 7.06565C16.5691 6.5168 16.7941 5.90776 16.8924 5.28673C16.9287 5.05875 16.9535 4.82913 16.9545 4.59843C16.9559 4.33858 16.7366 4.12176 16.4779 4.12176C16.2172 4.12176 16.0026 4.33858 16.0012 4.59843Z" fill="#ed145b"/>
<path d="M16.0012 4.59843C16.0007 4.72999 15.9925 4.861 15.9786 4.99175C15.9759 5.01789 15.9593 5.13447 15.9783 4.99964C15.9734 5.03369 15.9677 5.06747 15.9623 5.10124C15.9489 5.1816 15.9323 5.26113 15.9146 5.34067C15.8833 5.48012 15.8443 5.61795 15.801 5.75441C15.779 5.82387 15.7547 5.89251 15.7299 5.96088C15.7174 5.9952 15.704 6.02952 15.691 6.06356C15.6825 6.08508 15.6193 6.23598 15.6692 6.11995C15.5482 6.40295 15.4006 6.67424 15.2326 6.93191C15.1925 6.9932 15.1506 7.05312 15.1078 7.1125C15.0866 7.14192 15.0648 7.17106 15.0427 7.19993C15.1152 7.10406 15.0408 7.2013 15.028 7.21709C14.9316 7.33694 14.8273 7.45052 14.718 7.55893C14.6687 7.60796 14.6175 7.65481 14.5655 7.70084C14.5393 7.72399 14.3721 7.85746 14.477 7.77738C14.3626 7.86482 14.2411 7.94244 14.1147 8.01163C14.0578 8.04295 13.9992 8.07073 13.9404 8.09743C14.0616 8.04268 13.9608 8.08844 13.9355 8.09825C13.9058 8.10969 13.8756 8.12004 13.8453 8.13011C13.7851 8.15054 13.7238 8.16688 13.6623 8.18159C13.6315 8.18895 13.6005 8.19494 13.5694 8.20093C13.4318 8.22735 13.6261 8.19657 13.5394 8.20611C13.4128 8.22 13.2848 8.21782 13.1581 8.20611C13.0459 8.19576 13.2706 8.22408 13.1595 8.20638C13.1281 8.20148 13.0974 8.19494 13.0663 8.18868C12.9939 8.17369 12.9228 8.15299 12.8525 8.13039C12.8223 8.12058 12.7923 8.10941 12.7623 8.09852C12.7373 8.08926 12.6351 8.04459 12.7574 8.0977C12.6981 8.07182 12.6403 8.04241 12.5831 8.0119C12.4562 7.94408 12.3361 7.86373 12.2208 7.77765C12.3263 7.85664 12.1587 7.72427 12.1323 7.70111C12.0798 7.65563 12.0294 7.60769 11.9798 7.5592C11.8695 7.45189 11.7673 7.3364 11.6698 7.21737C11.6567 7.20157 11.5818 7.1046 11.6551 7.20021C11.633 7.17133 11.6115 7.14192 11.59 7.11277C11.547 7.05367 11.5058 6.9932 11.4653 6.93218C11.377 6.79899 11.2964 6.66062 11.2207 6.5198C11.1507 6.3896 11.0875 6.25559 11.0284 6.12022C11.0768 6.23162 11.0275 6.11722 11.0199 6.09816C11.0063 6.06411 10.9932 6.02979 10.9802 5.99547C10.9499 5.91593 10.9227 5.83558 10.8963 5.75468C10.8521 5.61877 10.8148 5.4804 10.7827 5.34094C10.7669 5.27284 10.7535 5.2042 10.741 5.13556C10.7347 5.10179 10.7293 5.06774 10.7241 5.03369C10.7162 4.98003 10.7173 4.98875 10.7268 5.05902C10.7238 5.03669 10.7214 5.01435 10.7187 4.99202C10.7034 4.86155 10.6966 4.72999 10.6961 4.5987C10.6958 4.52243 10.6993 4.44617 10.7042 4.37017C10.7067 4.33259 10.7105 4.295 10.7143 4.25768C10.7208 4.20293 10.7198 4.20783 10.7113 4.27293C10.7149 4.24842 10.7187 4.22391 10.7228 4.19939C10.7464 4.05421 10.7829 3.91121 10.8271 3.77094C10.8489 3.70148 10.8742 3.63338 10.9006 3.56583C10.9456 3.45116 10.8589 3.65899 10.9093 3.54677C10.9289 3.50291 10.9502 3.45988 10.972 3.41711C11.0365 3.2891 11.112 3.16707 11.1932 3.04913C11.2133 3.01971 11.2346 2.99111 11.2558 2.96251C11.1833 3.06002 11.2558 2.9636 11.2694 2.94699C11.322 2.8827 11.3781 2.82115 11.4353 2.76122C11.5336 2.65826 11.6407 2.56375 11.7521 2.47495C11.6567 2.55067 11.7524 2.47631 11.7698 2.46378C11.7987 2.44281 11.8283 2.42293 11.858 2.40304C11.9272 2.35646 11.9991 2.3137 12.0719 2.27284C12.1242 2.24343 12.1775 2.21646 12.2315 2.19004C12.253 2.17969 12.2748 2.16934 12.2968 2.15953C12.4085 2.10805 12.2018 2.19739 12.3159 2.15082C12.4398 2.10043 12.5676 2.06039 12.6967 2.02661C12.7561 2.01109 12.8163 1.99828 12.8765 1.9863C12.9059 1.98058 13.1023 1.95198 12.9704 1.96859C13.1085 1.95116 13.248 1.94544 13.3872 1.94626C13.4506 1.94653 13.5138 1.95007 13.5773 1.95416C13.607 1.95607 13.8064 1.97976 13.6745 1.96124C13.8088 1.97976 13.9412 2.00945 14.0717 2.04541C14.1302 2.06148 14.1882 2.08054 14.2457 2.09988C14.28 2.11159 14.3141 2.1244 14.3481 2.1372C14.3683 2.14482 14.4813 2.19331 14.368 2.14428C14.489 2.19658 14.6055 2.25868 14.7188 2.32596C14.7701 2.35646 14.8199 2.38915 14.8695 2.42238C14.8929 2.43818 15.0457 2.55231 14.9457 2.47441C15.0487 2.55449 15.1454 2.64274 15.2377 2.73507C15.3216 2.81897 15.3993 2.90912 15.4733 3.00201C15.3946 2.90286 15.509 3.05458 15.5254 3.07827C15.5659 3.13711 15.6035 3.19812 15.64 3.25968C15.7013 3.36264 15.7547 3.47023 15.8035 3.57973C15.7512 3.4626 15.8258 3.64019 15.8359 3.6677C15.8609 3.73634 15.8825 3.80607 15.9026 3.87608C15.9402 4.00627 15.9666 4.13947 15.9868 4.27321C15.9669 4.14192 15.9917 4.34048 15.9941 4.37045C15.999 4.44617 16.0009 4.52243 16.0012 4.59843ZM16.0012 4.59843C16.0028 4.85828 16.2169 5.07509 16.4779 5.07509C16.7366 5.07509 16.9562 4.85828 16.9545 4.59843C16.9464 3.25505 16.1837 1.9893 14.979 1.38216C13.72 0.748058 12.2121 0.918568 11.106 1.77847C10.5836 2.18486 10.2082 2.73344 9.96771 3.34575C9.72421 3.96623 9.70623 4.63574 9.80401 5.28673C9.89744 5.90885 10.1317 6.51544 10.4321 7.06565C10.7287 7.6085 11.1264 8.12276 11.6156 8.50518C12.1182 8.89795 12.7008 9.16325 13.3482 9.1687C13.9913 9.17415 14.584 8.89332 15.0808 8.50518C15.5719 8.1214 15.9631 7.60796 16.2643 7.06565C16.5691 6.5168 16.7941 5.90776 16.8924 5.28673C16.9287 5.05875 16.9535 4.82913 16.9545 4.59843C16.9559 4.33858 16.7366 4.12176 16.4779 4.12176C16.2172 4.12176 16.0026 4.33858 16.0012 4.59843Z" stroke="#ed145b" stroke-width="0.2"/>
<path d="M19.1477 13.0199C19.1477 13.8542 19.1477 14.6883 19.1477 15.5226C19.3065 15.3638 19.4655 15.2047 19.6243 15.0459C18.7762 15.0459 17.928 15.0459 17.0798 15.0459C15.3463 15.0459 13.6129 15.0459 11.8795 15.0459C10.4775 15.0459 9.07587 15.0459 7.67392 15.0459C7.47536 15.0459 7.27707 15.0459 7.0785 15.0459C7.2373 15.2047 7.39637 15.3638 7.55517 15.5226C7.55517 14.8432 7.55517 14.1639 7.55517 13.4846C7.55517 13.3506 7.55517 13.2163 7.55517 13.0823C7.55517 13.0616 7.55517 13.0409 7.55517 13.0202C7.55517 12.9565 7.55735 12.8933 7.56061 12.8298C7.56252 12.7922 7.56579 12.7546 7.56906 12.717C7.57124 12.6923 7.57396 12.6672 7.57696 12.6424C7.5677 12.7075 7.56688 12.7127 7.57478 12.6582C7.59602 12.5128 7.63007 12.3692 7.6712 12.2279C7.69163 12.1581 7.71533 12.0895 7.74039 12.0214C7.75291 11.9876 7.76653 11.9541 7.78015 11.9206C7.73167 12.0399 7.79513 11.8923 7.80548 11.8702C7.86677 11.7408 7.93868 11.6169 8.01658 11.4971C8.05526 11.4374 8.0972 11.3797 8.1397 11.3227C8.0667 11.4202 8.13997 11.3244 8.15331 11.3077C8.18328 11.2713 8.21487 11.2356 8.24647 11.2004C8.35706 11.077 8.47908 10.964 8.6071 10.8591C8.7008 10.7823 8.52593 10.9193 8.6229 10.8466C8.66076 10.8183 8.69998 10.7913 8.7392 10.7644C8.80812 10.7175 8.87948 10.6745 8.95166 10.6331C9.02411 10.5914 9.09902 10.5538 9.17447 10.5181C9.19408 10.5089 9.30657 10.4604 9.19245 10.5083C9.23684 10.4898 9.28206 10.4729 9.32727 10.4563C9.48743 10.3975 9.65304 10.3544 9.82055 10.3217C9.85705 10.3147 9.89355 10.3089 9.93005 10.3029C9.98453 10.295 9.97908 10.2956 9.91425 10.3051C9.93904 10.3021 9.96383 10.2997 9.98889 10.2972C10.0769 10.2885 10.1651 10.285 10.2534 10.2833C10.3231 10.2822 10.3931 10.2831 10.4628 10.2831C10.6559 10.2831 10.8491 10.2831 11.0425 10.2831C10.9302 10.2365 10.8177 10.1899 10.7052 10.1433C11.4766 11.1059 12.2483 12.0682 13.0197 13.0306C13.021 13.0322 13.0224 13.0338 13.0237 13.0357C13.1738 13.2229 13.5481 13.2242 13.6979 13.0357C14.4636 12.0729 15.2292 11.1097 15.9949 10.1466C15.9957 10.1455 15.9965 10.1444 15.9976 10.1433C15.8854 10.1899 15.7729 10.2365 15.6607 10.2831C15.9238 10.2831 16.1866 10.2817 16.4498 10.2833C16.5129 10.2836 16.5761 10.2871 16.6393 10.291C16.6769 10.2934 16.7142 10.2969 16.7515 10.3008C16.8785 10.3133 16.6472 10.2844 16.7728 10.3027C16.9063 10.3223 17.0381 10.3525 17.168 10.3887C17.2263 10.4051 17.2841 10.4239 17.3413 10.4435C17.3756 10.4552 17.4093 10.468 17.4431 10.4811C17.4633 10.4887 17.5763 10.5372 17.4625 10.4882C17.5831 10.5405 17.6994 10.602 17.8127 10.6687C17.8639 10.699 17.9138 10.7314 17.9634 10.7644C17.9931 10.784 18.0219 10.8047 18.0511 10.8254C18.0685 10.8379 18.1641 10.912 18.068 10.8365C18.1704 10.9169 18.2668 11.0049 18.3586 11.0969C18.4005 11.1389 18.4403 11.1825 18.4798 11.2266C18.5035 11.253 18.5264 11.2802 18.5493 11.3075C18.5629 11.3238 18.6372 11.4194 18.5629 11.3225C18.6424 11.4262 18.7138 11.536 18.78 11.6485C18.8102 11.7 18.8383 11.7525 18.8655 11.8057C18.8818 11.8375 18.8974 11.8699 18.9126 11.9024C18.9219 11.922 18.9704 12.0345 18.9224 11.9203C18.9739 12.0432 19.0156 12.1696 19.0513 12.2979C19.0878 12.4281 19.1134 12.561 19.133 12.6947C19.1136 12.5629 19.1371 12.7617 19.1395 12.7914C19.1455 12.8679 19.1474 12.9439 19.1477 13.0199C19.1493 13.2798 19.3634 13.4966 19.6243 13.4966C19.8831 13.4966 20.1026 13.2798 20.101 13.0199C20.0931 11.6771 19.3517 10.4187 18.1696 9.77561C17.6223 9.4779 17.0035 9.33027 16.3817 9.33027C16.1907 9.33027 16.0001 9.33027 15.8091 9.33027C15.6277 9.33027 15.4332 9.33163 15.3071 9.49015C14.5461 10.4476 13.7848 11.405 13.0237 12.3624C13.2485 12.3624 13.4732 12.3624 13.6979 12.3624C12.9265 11.3998 12.1549 10.4375 11.3835 9.47517C11.241 9.29758 10.9752 9.33054 10.7728 9.33054C10.6124 9.33054 10.4519 9.33054 10.2915 9.33054C9.62008 9.33054 8.95275 9.51821 8.37803 9.86495C7.28061 10.5271 6.60156 11.7517 6.60156 13.03C6.60156 13.861 6.60156 14.6921 6.60156 15.5231C6.60156 15.783 6.81838 15.9998 7.07823 15.9998C7.92642 15.9998 8.77461 15.9998 9.62281 15.9998C11.3562 15.9998 13.0897 15.9998 14.8231 15.9998C16.225 15.9998 17.6267 15.9998 19.0286 15.9998C19.2272 15.9998 19.4255 15.9998 19.6241 15.9998C19.8839 15.9998 20.1007 15.783 20.1007 15.5231C20.1007 14.6888 20.1007 13.8548 20.1007 13.0205C20.1007 12.7606 19.8839 12.5438 19.6241 12.5438C19.3642 12.5438 19.1477 12.7601 19.1477 13.0199Z" fill="#ed145b"/>
<path d="M19.1477 13.0199C19.1477 13.8542 19.1477 14.6883 19.1477 15.5226C19.3065 15.3638 19.4655 15.2047 19.6243 15.0459C18.7762 15.0459 17.928 15.0459 17.0798 15.0459C15.3463 15.0459 13.6129 15.0459 11.8795 15.0459C10.4775 15.0459 9.07587 15.0459 7.67392 15.0459C7.47536 15.0459 7.27707 15.0459 7.0785 15.0459C7.2373 15.2047 7.39637 15.3638 7.55517 15.5226C7.55517 14.8432 7.55517 14.1639 7.55517 13.4846C7.55517 13.3506 7.55517 13.2163 7.55517 13.0823C7.55517 13.0616 7.55517 13.0409 7.55517 13.0202C7.55517 12.9565 7.55735 12.8933 7.56061 12.8298C7.56252 12.7922 7.56579 12.7546 7.56906 12.717C7.57124 12.6923 7.57396 12.6672 7.57696 12.6424C7.5677 12.7075 7.56688 12.7127 7.57478 12.6582C7.59602 12.5128 7.63007 12.3692 7.6712 12.2279C7.69163 12.1581 7.71533 12.0895 7.74039 12.0214C7.75291 11.9876 7.76653 11.9541 7.78015 11.9206C7.73167 12.0399 7.79513 11.8923 7.80548 11.8702C7.86677 11.7408 7.93868 11.6169 8.01658 11.4971C8.05526 11.4374 8.0972 11.3797 8.1397 11.3227C8.0667 11.4202 8.13997 11.3244 8.15331 11.3077C8.18328 11.2713 8.21487 11.2356 8.24647 11.2004C8.35706 11.077 8.47908 10.964 8.6071 10.8591C8.7008 10.7823 8.52593 10.9193 8.6229 10.8466C8.66076 10.8183 8.69998 10.7913 8.7392 10.7644C8.80812 10.7175 8.87948 10.6745 8.95166 10.6331C9.02411 10.5914 9.09902 10.5538 9.17447 10.5181C9.19408 10.5089 9.30657 10.4604 9.19245 10.5083C9.23684 10.4898 9.28206 10.4729 9.32727 10.4563C9.48743 10.3975 9.65304 10.3544 9.82055 10.3217C9.85705 10.3147 9.89355 10.3089 9.93005 10.3029C9.98453 10.295 9.97908 10.2956 9.91425 10.3051C9.93904 10.3021 9.96383 10.2997 9.98889 10.2972C10.0769 10.2885 10.1651 10.285 10.2534 10.2833C10.3231 10.2822 10.3931 10.2831 10.4628 10.2831C10.6559 10.2831 10.8491 10.2831 11.0425 10.2831C10.9302 10.2365 10.8177 10.1899 10.7052 10.1433C11.4766 11.1059 12.2483 12.0682 13.0197 13.0306C13.021 13.0322 13.0224 13.0338 13.0237 13.0357C13.1738 13.2229 13.5481 13.2242 13.6979 13.0357C14.4636 12.0729 15.2292 11.1097 15.9949 10.1466C15.9957 10.1455 15.9965 10.1444 15.9976 10.1433C15.8854 10.1899 15.7729 10.2365 15.6607 10.2831C15.9238 10.2831 16.1866 10.2817 16.4498 10.2833C16.5129 10.2836 16.5761 10.2871 16.6393 10.291C16.6769 10.2934 16.7142 10.2969 16.7515 10.3008C16.8785 10.3133 16.6472 10.2844 16.7728 10.3027C16.9063 10.3223 17.0381 10.3525 17.168 10.3887C17.2263 10.4051 17.2841 10.4239 17.3413 10.4435C17.3756 10.4552 17.4093 10.468 17.4431 10.4811C17.4633 10.4887 17.5763 10.5372 17.4625 10.4882C17.5831 10.5405 17.6994 10.602 17.8127 10.6687C17.864 10.699 17.9138 10.7314 17.9634 10.7644C17.9931 10.784 18.0219 10.8047 18.0511 10.8254C18.0685 10.8379 18.1641 10.912 18.068 10.8365C18.1704 10.9169 18.2668 11.0049 18.3586 11.0969C18.4005 11.1389 18.4403 11.1825 18.4798 11.2266C18.5035 11.253 18.5264 11.2802 18.5493 11.3075C18.5629 11.3238 18.6372 11.4194 18.5629 11.3225C18.6424 11.4262 18.7138 11.536 18.78 11.6485C18.8102 11.7 18.8383 11.7525 18.8655 11.8057C18.8818 11.8375 18.8974 11.8699 18.9126 11.9024C18.9219 11.922 18.9704 12.0345 18.9224 11.9203C18.9739 12.0432 19.0156 12.1696 19.0513 12.2979C19.0878 12.4281 19.1134 12.561 19.133 12.6947C19.1136 12.5629 19.1371 12.7617 19.1395 12.7914C19.1455 12.8679 19.1474 12.9439 19.1477 13.0199ZM19.1477 13.0199C19.1493 13.2798 19.3634 13.4966 19.6243 13.4966C19.8831 13.4966 20.1026 13.2798 20.101 13.0199C20.0931 11.6771 19.3517 10.4187 18.1696 9.77561C17.6223 9.4779 17.0035 9.33027 16.3817 9.33027C16.1907 9.33027 16.0001 9.33027 15.8091 9.33027C15.6277 9.33027 15.4332 9.33163 15.3071 9.49015C14.5461 10.4476 13.7848 11.405 13.0237 12.3624C13.2485 12.3624 13.4732 12.3624 13.6979 12.3624C12.9265 11.3998 12.1549 10.4375 11.3835 9.47517C11.241 9.29758 10.9752 9.33054 10.7728 9.33054C10.6124 9.33054 10.4519 9.33054 10.2915 9.33054C9.62008 9.33054 8.95275 9.51821 8.37803 9.86495C7.28061 10.5271 6.60156 11.7517 6.60156 13.03C6.60156 13.861 6.60156 14.6921 6.60156 15.5231C6.60156 15.783 6.81838 15.9998 7.07823 15.9998C7.92642 15.9998 8.77461 15.9998 9.62281 15.9998C11.3562 15.9998 13.0897 15.9998 14.8231 15.9998C16.225 15.9998 17.6267 15.9998 19.0286 15.9998C19.2272 15.9998 19.4255 15.9998 19.6241 15.9998C19.8839 15.9998 20.1007 15.783 20.1007 15.5231C20.1007 14.6888 20.1007 13.8548 20.1007 13.0205C20.1007 12.7606 19.8839 12.5438 19.6241 12.5438C19.3642 12.5438 19.1477 12.7601 19.1477 13.0199Z" stroke="#ed145b" stroke-width="0.2"/>
<path d="M23.0622 5.6913C23.0617 5.7564 23.0592 5.82095 23.0548 5.88578C23.0527 5.91901 23.0491 5.95197 23.0459 5.9852C23.0339 6.10232 23.0627 5.87515 23.0453 5.99255C23.0233 6.14263 22.9887 6.29081 22.9475 6.4368C22.9083 6.57653 22.8593 6.71327 22.8053 6.8481C22.7588 6.96386 22.8462 6.75494 22.7958 6.86934C22.7808 6.90312 22.765 6.93635 22.7492 6.96958C22.7125 7.04748 22.6722 7.12347 22.6305 7.19865C22.5597 7.32694 22.4801 7.45033 22.3951 7.57018C22.3742 7.59987 22.3524 7.62874 22.3306 7.65761C22.403 7.56146 22.3287 7.65788 22.3156 7.67368C22.263 7.73769 22.2072 7.79898 22.15 7.85863C22.1018 7.90902 22.0511 7.95669 21.9996 8.00326C21.9743 8.02614 21.9479 8.04821 21.9217 8.07027C21.8319 8.14545 22.0046 8.00953 21.9117 8.07926C21.7975 8.16478 21.6744 8.23751 21.5459 8.29852C21.444 8.34673 21.6461 8.25957 21.5418 8.30043C21.5121 8.31187 21.4819 8.32195 21.4519 8.33175C21.392 8.35164 21.3301 8.36607 21.2683 8.3786C21.2392 8.3846 21.1294 8.39685 21.2702 8.38024C21.2389 8.38405 21.207 8.38569 21.1754 8.38732C21.1013 8.39141 21.0272 8.38732 20.9534 8.38024C21.1049 8.39495 20.9025 8.36744 20.863 8.3579C20.8014 8.34292 20.7412 8.32222 20.6819 8.30043C20.5767 8.26148 20.7802 8.3451 20.6778 8.29852C20.6484 8.28518 20.6195 8.2702 20.5909 8.25549C20.5228 8.22035 20.4577 8.17949 20.3937 8.137C20.3659 8.11848 20.3387 8.09887 20.3117 8.07898C20.2177 8.01034 20.3923 8.14408 20.3016 8.07C20.2482 8.02642 20.1976 7.97984 20.1475 7.93244C20.0965 7.88396 20.0483 7.83303 20.0009 7.78127C19.9769 7.75512 19.9538 7.72789 19.9306 7.70092C19.9157 7.68322 19.8162 7.55792 19.8925 7.65734C19.7059 7.41519 19.5534 7.14717 19.4273 6.86907C19.3755 6.75522 19.4651 6.96304 19.4178 6.84783C19.4039 6.81405 19.3908 6.77973 19.3777 6.74568C19.3518 6.67786 19.3287 6.60895 19.3066 6.53976C19.2598 6.39377 19.2235 6.2445 19.1949 6.09388C19.1887 6.0601 19.1832 6.02605 19.1778 5.99228C19.1593 5.87488 19.1906 6.10178 19.1772 5.98492C19.1699 5.91928 19.1655 5.85336 19.1628 5.78745C19.1598 5.71717 19.1609 5.6469 19.1636 5.57663C19.165 5.53904 19.1683 5.50118 19.1715 5.46386C19.174 5.43907 19.1764 5.41429 19.1797 5.3895C19.1707 5.4546 19.1704 5.46005 19.1789 5.40584C19.2023 5.26148 19.2423 5.11984 19.2916 4.98229C19.299 4.96186 19.3458 4.84828 19.2974 4.96214C19.3115 4.92918 19.3271 4.89676 19.3426 4.86435C19.3788 4.78917 19.4205 4.71672 19.4643 4.64563C19.5016 4.58489 19.543 4.52687 19.5855 4.46967C19.5128 4.56718 19.5861 4.47185 19.6 4.45524C19.6229 4.428 19.6468 4.40185 19.6708 4.3757C19.7187 4.3234 19.7702 4.2741 19.8225 4.22616C19.8487 4.20219 19.8759 4.17931 19.9031 4.15643C19.944 4.12348 19.9396 4.12647 19.8903 4.16488C19.9091 4.15071 19.9285 4.13655 19.9475 4.12293C20.0636 4.03931 20.1883 3.96849 20.3172 3.90666C20.3368 3.89713 20.4495 3.85028 20.3351 3.89713C20.3686 3.88351 20.4027 3.87125 20.4367 3.85899C20.5168 3.83039 20.5991 3.80779 20.6816 3.78763C20.7173 3.77891 20.7535 3.77183 20.7897 3.76475C20.8118 3.76039 20.9368 3.74214 20.8099 3.75903C20.8845 3.74922 20.96 3.74459 21.0351 3.7416C21.1111 3.7386 21.1874 3.74105 21.2634 3.74514C21.301 3.74732 21.3383 3.75086 21.3759 3.75467C21.4306 3.76121 21.4255 3.76039 21.3601 3.75222C21.3846 3.75603 21.4089 3.76012 21.4331 3.76475C21.5769 3.79063 21.7175 3.83257 21.8542 3.88378C21.9694 3.92709 21.7613 3.84156 21.8733 3.89141C21.9059 3.90612 21.9381 3.92191 21.9702 3.93798C22.0449 3.9753 22.1165 4.01806 22.187 4.06273C22.217 4.0818 22.2462 4.10223 22.2753 4.12266C22.293 4.13492 22.3881 4.20955 22.2922 4.13383C22.348 4.17795 22.4006 4.22562 22.4523 4.27437C22.5041 4.32313 22.5523 4.37516 22.5997 4.42827C22.6234 4.45469 22.6457 4.4822 22.6683 4.50998C22.5883 4.41193 22.686 4.53613 22.6999 4.55602C22.7615 4.64372 22.8149 4.73688 22.8642 4.83194C22.8775 4.85781 22.9541 5.03323 22.9053 4.91447C22.9282 4.97031 22.9478 5.02751 22.9663 5.08498C23.0004 5.18984 23.0246 5.29744 23.044 5.40557C23.0524 5.45977 23.0521 5.45433 23.0431 5.38923C23.048 5.42627 23.0513 5.46386 23.0543 5.50118C23.0603 5.56464 23.0617 5.62783 23.0622 5.6913C23.0641 5.95115 23.2774 6.16796 23.5389 6.16796C23.7971 6.16796 24.0174 5.95115 24.0155 5.6913C24.0049 4.30978 22.9933 3.05847 21.614 2.83348C20.912 2.71908 20.1935 2.84656 19.5853 3.22108C18.9977 3.5828 18.5707 4.14799 18.3489 4.79734C17.9229 6.04539 18.4851 7.51488 19.327 8.45569C19.7607 8.94025 20.3338 9.27392 20.9848 9.33684C21.6257 9.39894 22.2385 9.07127 22.6991 8.65425C23.1017 8.28981 23.4149 7.81069 23.6337 7.31659C23.8608 6.80315 24.0117 6.25567 24.0153 5.69103C24.0169 5.43117 23.7971 5.21436 23.5386 5.21436C23.2777 5.21463 23.0638 5.43145 23.0622 5.6913Z" fill="#ed145b"/>
<path d="M23.0622 5.6913C23.0617 5.7564 23.0592 5.82095 23.0548 5.88578C23.0527 5.91901 23.0491 5.95197 23.0459 5.9852C23.0339 6.10232 23.0627 5.87515 23.0453 5.99255C23.0233 6.14263 22.9887 6.29081 22.9475 6.4368C22.9083 6.57653 22.8593 6.71327 22.8053 6.8481C22.7588 6.96386 22.8462 6.75494 22.7958 6.86934C22.7808 6.90312 22.765 6.93635 22.7492 6.96958C22.7125 7.04748 22.6722 7.12347 22.6305 7.19865C22.5597 7.32694 22.4801 7.45033 22.3951 7.57018C22.3742 7.59987 22.3524 7.62874 22.3306 7.65761C22.403 7.56146 22.3287 7.65788 22.3156 7.67368C22.263 7.73769 22.2072 7.79898 22.15 7.85863C22.1018 7.90902 22.0511 7.95669 21.9996 8.00326C21.9743 8.02614 21.9479 8.04821 21.9217 8.07027C21.8319 8.14545 22.0046 8.00953 21.9117 8.07926C21.7975 8.16478 21.6744 8.23751 21.5459 8.29852C21.444 8.34673 21.6461 8.25957 21.5418 8.30043C21.5121 8.31187 21.4819 8.32195 21.4519 8.33175C21.392 8.35164 21.3301 8.36607 21.2683 8.3786C21.2392 8.3846 21.1294 8.39685 21.2702 8.38024C21.2389 8.38405 21.207 8.38569 21.1754 8.38732C21.1013 8.39141 21.0272 8.38732 20.9534 8.38024C21.1049 8.39495 20.9025 8.36744 20.863 8.3579C20.8014 8.34292 20.7412 8.32222 20.6819 8.30043C20.5767 8.26148 20.7802 8.3451 20.6778 8.29852C20.6484 8.28518 20.6195 8.2702 20.5909 8.25549C20.5228 8.22035 20.4577 8.17949 20.3937 8.137C20.3659 8.11848 20.3387 8.09887 20.3117 8.07898C20.2177 8.01034 20.3923 8.14408 20.3016 8.07C20.2482 8.02642 20.1976 7.97984 20.1475 7.93244C20.0965 7.88396 20.0483 7.83303 20.0009 7.78127C19.9769 7.75512 19.9538 7.72789 19.9306 7.70092C19.9157 7.68322 19.8162 7.55792 19.8925 7.65734C19.7059 7.41519 19.5534 7.14717 19.4273 6.86907C19.3755 6.75522 19.4651 6.96304 19.4178 6.84783C19.4039 6.81405 19.3908 6.77973 19.3777 6.74568C19.3518 6.67786 19.3287 6.60895 19.3066 6.53976C19.2598 6.39377 19.2235 6.2445 19.1949 6.09388C19.1887 6.0601 19.1832 6.02605 19.1778 5.99228C19.1593 5.87488 19.1906 6.10178 19.1772 5.98492C19.1699 5.91928 19.1655 5.85336 19.1628 5.78745C19.1598 5.71717 19.1609 5.6469 19.1636 5.57663C19.165 5.53904 19.1683 5.50118 19.1715 5.46386C19.174 5.43907 19.1764 5.41429 19.1797 5.3895C19.1707 5.4546 19.1704 5.46005 19.1789 5.40584C19.2023 5.26148 19.2423 5.11984 19.2916 4.98229C19.299 4.96186 19.3458 4.84828 19.2974 4.96214C19.3115 4.92918 19.3271 4.89676 19.3426 4.86435C19.3788 4.78917 19.4205 4.71672 19.4643 4.64563C19.5016 4.58489 19.543 4.52687 19.5855 4.46967C19.5128 4.56718 19.5861 4.47185 19.6 4.45524C19.6229 4.428 19.6468 4.40185 19.6708 4.3757C19.7187 4.3234 19.7702 4.2741 19.8225 4.22616C19.8487 4.20219 19.8759 4.17931 19.9031 4.15643C19.944 4.12348 19.9396 4.12647 19.8903 4.16488C19.9091 4.15071 19.9285 4.13655 19.9475 4.12293C20.0636 4.03931 20.1883 3.96849 20.3172 3.90666C20.3368 3.89713 20.4495 3.85028 20.3351 3.89713C20.3686 3.88351 20.4027 3.87125 20.4367 3.85899C20.5168 3.83039 20.5991 3.80779 20.6816 3.78763C20.7173 3.77891 20.7535 3.77183 20.7897 3.76475C20.8118 3.76039 20.9368 3.74214 20.8099 3.75903C20.8845 3.74922 20.96 3.74459 21.0351 3.7416C21.1111 3.7386 21.1874 3.74105 21.2634 3.74514C21.301 3.74732 21.3383 3.75086 21.3759 3.75467C21.4306 3.76121 21.4255 3.76039 21.3601 3.75222C21.3846 3.75603 21.4089 3.76012 21.4331 3.76475C21.5769 3.79063 21.7175 3.83257 21.8542 3.88378C21.9694 3.92709 21.7613 3.84156 21.8733 3.89141C21.9059 3.90612 21.9381 3.92191 21.9702 3.93798C22.0449 3.9753 22.1165 4.01806 22.187 4.06273C22.217 4.0818 22.2462 4.10223 22.2753 4.12266C22.293 4.13492 22.3881 4.20955 22.2922 4.13383C22.348 4.17795 22.4006 4.22562 22.4523 4.27437C22.5041 4.32313 22.5523 4.37516 22.5997 4.42827C22.6234 4.45469 22.6457 4.4822 22.6683 4.50998C22.5883 4.41193 22.686 4.53613 22.6999 4.55602C22.7615 4.64372 22.8149 4.73688 22.8642 4.83194C22.8775 4.85781 22.9541 5.03323 22.9053 4.91447C22.9282 4.97031 22.9478 5.02751 22.9663 5.08498C23.0004 5.18984 23.0246 5.29744 23.044 5.40557C23.0524 5.45977 23.0521 5.45433 23.0431 5.38923C23.048 5.42627 23.0513 5.46386 23.0543 5.50118C23.0603 5.56464 23.0617 5.62783 23.0622 5.6913ZM23.0622 5.6913C23.0641 5.95115 23.2774 6.16796 23.5389 6.16796C23.7971 6.16796 24.0174 5.95115 24.0155 5.6913C24.0049 4.30978 22.9933 3.05847 21.614 2.83348C20.912 2.71908 20.1935 2.84656 19.5853 3.22108C18.9977 3.5828 18.5707 4.14799 18.3489 4.79734C17.9229 6.04539 18.4851 7.51489 19.3271 8.45569C19.7607 8.94025 20.3338 9.27392 20.9848 9.33684C21.6257 9.39894 22.2385 9.07127 22.6991 8.65425C23.1017 8.28981 23.4149 7.81069 23.6337 7.31659C23.8608 6.80315 24.0117 6.25567 24.0153 5.69103C24.0169 5.43117 23.7971 5.21436 23.5386 5.21436C23.2777 5.21463 23.0638 5.43145 23.0622 5.6913Z" stroke="#ed145b" stroke-width="0.2"/>
<path d="M21.4576 12.5213C22.052 11.794 22.6466 11.0668 23.2409 10.3395C23.1287 10.3861 23.0162 10.4327 22.904 10.4792C23.0693 10.4792 23.2347 10.4792 23.4003 10.4792C23.4795 10.4792 23.5588 10.4795 23.6381 10.4839C23.6756 10.4858 23.713 10.4896 23.7503 10.4931C23.8769 10.5054 23.6459 10.4762 23.771 10.4961C23.8557 10.5095 23.939 10.5294 24.0218 10.5514C24.0918 10.5702 24.1607 10.5934 24.2288 10.6184C24.2493 10.6258 24.3623 10.6737 24.2485 10.6244C24.2814 10.6386 24.3138 10.6544 24.346 10.6699C24.4849 10.7372 24.6159 10.8203 24.7401 10.9121C24.642 10.8396 24.7379 10.9118 24.7545 10.9259C24.7818 10.9486 24.8082 10.9725 24.8343 10.9962C24.8869 11.0439 24.9362 11.0946 24.9847 11.1466C25.0089 11.1725 25.0318 11.1994 25.055 11.2264C25.0689 11.2427 25.1427 11.3381 25.0689 11.2408C25.1193 11.3067 25.1647 11.3762 25.2081 11.447C25.2454 11.5078 25.2789 11.5709 25.311 11.635C25.3271 11.6671 25.3418 11.6998 25.3565 11.7325C25.3058 11.6197 25.3549 11.7314 25.3625 11.7521C25.4189 11.9 25.4576 12.0541 25.4845 12.21C25.506 12.3344 25.4733 12.1043 25.4875 12.2307C25.4919 12.268 25.4943 12.3056 25.4968 12.3429C25.5003 12.3941 25.5014 12.4456 25.5014 12.4968C25.5014 12.5305 25.5014 12.5646 25.5014 12.5984C25.5014 12.99 25.5014 13.3815 25.5014 13.7731C25.5014 13.9938 25.5014 14.2147 25.5014 14.4356C25.6602 14.2768 25.8193 14.1177 25.9781 13.9589C24.6189 13.9589 23.2594 13.9589 21.9003 13.9589C21.6404 13.9589 21.3806 13.9589 21.1207 13.9589C20.8609 13.9589 20.644 14.1757 20.644 14.4356C20.644 14.6954 20.8609 14.9122 21.1207 14.9122C22.4799 14.9122 23.8393 14.9122 25.1985 14.9122C25.4584 14.9122 25.7182 14.9122 25.9781 14.9122C26.2379 14.9122 26.4547 14.6954 26.4547 14.4356C26.4547 13.7966 26.4547 13.1576 26.4547 12.5186C26.4547 11.2051 25.5956 10.0464 24.3454 9.65257C23.8848 9.50739 23.4038 9.52619 22.9277 9.52619C22.5946 9.52619 22.4219 9.84351 22.2353 10.0718C21.7633 10.6495 21.2909 11.2272 20.8189 11.8046C20.8072 11.8191 20.7955 11.8332 20.7838 11.8477C20.6195 12.0487 20.5863 12.3243 20.7838 12.5218C20.9535 12.6912 21.2931 12.7228 21.4576 12.5213Z" fill="#ed145b" stroke="#ed145b" stroke-width="0.2"/>
<path d="M7.53681 5.6913C7.53627 5.7564 7.53382 5.82095 7.52946 5.88578C7.52728 5.91901 7.52374 5.95197 7.52047 5.9852C7.50849 6.10232 7.53736 5.87515 7.51993 5.99255C7.49786 6.14263 7.46327 6.29081 7.42214 6.4368C7.38292 6.57653 7.33389 6.71327 7.27996 6.8481C7.23338 6.96386 7.32082 6.75494 7.27042 6.86934C7.25544 6.90312 7.23965 6.93635 7.22385 6.96958C7.18708 7.04748 7.14676 7.12347 7.10509 7.19865C7.03427 7.32694 6.95474 7.45033 6.86975 7.57018C6.84878 7.59987 6.82699 7.62874 6.8052 7.65761C6.87765 7.56146 6.80329 7.65788 6.79022 7.67368C6.73765 7.73769 6.68181 7.79898 6.62461 7.85863C6.5764 7.90902 6.52574 7.95669 6.47426 8.00326C6.44893 8.02614 6.4225 8.04821 6.39636 8.07027C6.30647 8.14545 6.47916 8.00953 6.38628 8.07926C6.27215 8.16478 6.14903 8.23751 6.02047 8.29852C5.9186 8.34673 6.12071 8.25957 6.01639 8.30043C5.9867 8.31187 5.95646 8.32195 5.9265 8.33175C5.86658 8.35164 5.80502 8.36607 5.74292 8.3786C5.71377 8.3846 5.604 8.39685 5.74482 8.38024C5.7135 8.38405 5.68163 8.38569 5.65003 8.38732C5.57595 8.39141 5.50186 8.38732 5.42804 8.38024C5.57949 8.39495 5.37711 8.36744 5.33761 8.3579C5.27606 8.34292 5.21586 8.32222 5.15648 8.30043C5.05134 8.26148 5.25508 8.3451 5.15239 8.29852C5.12298 8.28518 5.09411 8.2702 5.06551 8.25549C4.99741 8.22035 4.93231 8.17949 4.8683 8.137C4.84052 8.11848 4.81355 8.09887 4.78632 8.07898C4.69234 8.01034 4.86694 8.14408 4.77624 8.07C4.72285 8.02642 4.67219 7.97984 4.62207 7.93244C4.57113 7.88396 4.52292 7.83303 4.47553 7.78127C4.45156 7.75512 4.42841 7.72789 4.40525 7.70092C4.39027 7.68322 4.29058 7.55792 4.36712 7.65734C4.18054 7.41519 4.02801 7.14717 3.9019 6.86907C3.85042 6.75522 3.93976 6.96304 3.89236 6.84783C3.87847 6.81405 3.8654 6.77973 3.85232 6.74568C3.82645 6.67786 3.80329 6.60895 3.78123 6.53976C3.73438 6.39377 3.69816 6.2445 3.66956 6.09388C3.66329 6.0601 3.65784 6.02605 3.6524 5.99228C3.63387 5.87488 3.6652 6.10178 3.65185 5.98492C3.6445 5.91928 3.64014 5.85336 3.63741 5.78745C3.63442 5.71717 3.63551 5.6469 3.63823 5.57663C3.63959 5.53904 3.64286 5.50118 3.64613 5.46386C3.64831 5.43907 3.65103 5.41429 3.6543 5.3895C3.64531 5.4546 3.64504 5.46005 3.65349 5.40584C3.67718 5.26148 3.71695 5.11984 3.76625 4.98229C3.7736 4.96186 3.82045 4.84828 3.77197 4.96214C3.78613 4.92918 3.80166 4.89676 3.81719 4.86435C3.85341 4.78917 3.89509 4.71672 3.93894 4.64563C3.97626 4.58489 4.01766 4.52687 4.06015 4.46967C3.98742 4.56718 4.06069 4.47185 4.07459 4.45524C4.09747 4.428 4.12143 4.40185 4.1454 4.3757C4.19334 4.3234 4.24482 4.2741 4.29712 4.22616C4.32327 4.20219 4.35051 4.17931 4.37774 4.15643C4.4186 4.12348 4.41452 4.12647 4.36494 4.16488C4.38401 4.15071 4.40308 4.13655 4.42242 4.12293C4.53845 4.03931 4.6632 3.96849 4.79204 3.90666C4.81165 3.89713 4.92441 3.85028 4.81001 3.89713C4.84352 3.88351 4.87756 3.87125 4.91161 3.85899C4.99169 3.83039 5.07395 3.80779 5.15648 3.78763C5.19216 3.77891 5.22839 3.77183 5.26462 3.76475C5.28668 3.76039 5.41143 3.74214 5.28477 3.75903C5.3594 3.74922 5.43485 3.74459 5.51003 3.7416C5.58602 3.7386 5.66229 3.74105 5.73829 3.74514C5.77587 3.74732 5.81319 3.75086 5.85078 3.75467C5.90553 3.76121 5.90035 3.76039 5.83498 3.75222C5.85949 3.75603 5.88374 3.76012 5.90798 3.76475C6.0518 3.79063 6.19234 3.83257 6.32908 3.88378C6.4443 3.92709 6.2362 3.84156 6.34814 3.89141C6.38083 3.90612 6.41297 3.92191 6.44511 3.93798C6.51974 3.9753 6.59138 4.01806 6.66193 4.06273C6.69189 4.0818 6.72131 4.10223 6.75045 4.12266C6.76816 4.13492 6.86294 4.20955 6.76734 4.13383C6.82318 4.17795 6.87575 4.22562 6.9275 4.27437C6.97925 4.32313 7.02746 4.37516 7.07458 4.42827C7.09828 4.45469 7.12062 4.4822 7.14322 4.50998C7.06314 4.41193 7.16093 4.53613 7.17482 4.55602C7.23638 4.64372 7.28976 4.73688 7.33906 4.83194C7.35241 4.85781 7.42895 5.03323 7.38019 4.91447C7.40307 4.97031 7.42269 5.02751 7.44121 5.08498C7.47526 5.18984 7.4995 5.29744 7.51884 5.40557C7.52728 5.45977 7.52701 5.45433 7.51802 5.38923C7.52292 5.42627 7.52619 5.46386 7.52919 5.50118C7.53491 5.56464 7.53627 5.62783 7.53681 5.6913C7.53872 5.95115 7.75199 6.16796 8.01348 6.16796C8.2717 6.16796 8.49205 5.95115 8.49014 5.6913C8.47952 4.30978 7.4679 3.05847 6.08857 2.83348C5.38664 2.71908 4.6681 2.84656 4.05988 3.22108C3.47235 3.5828 3.04526 4.14799 2.82354 4.79734C2.39754 6.04539 2.95973 7.51488 3.80166 8.45569C4.23529 8.94025 4.80838 9.27392 5.45937 9.33684C6.10055 9.39894 6.71313 9.07127 7.17373 8.65425C7.57631 8.28981 7.88955 7.81069 8.10827 7.31659C8.33543 6.80315 8.48633 6.25567 8.48987 5.69103C8.49151 5.43117 8.2717 5.21436 8.01321 5.21436C7.75227 5.21463 7.53845 5.43145 7.53681 5.6913Z" fill="#ed145b"/>
<path d="M7.53681 5.6913C7.53627 5.7564 7.53382 5.82095 7.52946 5.88578C7.52728 5.91901 7.52374 5.95197 7.52047 5.9852C7.50849 6.10232 7.53736 5.87515 7.51993 5.99255C7.49786 6.14263 7.46327 6.29081 7.42214 6.4368C7.38292 6.57653 7.33389 6.71327 7.27996 6.8481C7.23338 6.96386 7.32082 6.75494 7.27042 6.86934C7.25544 6.90312 7.23965 6.93635 7.22385 6.96958C7.18708 7.04748 7.14676 7.12347 7.10509 7.19865C7.03427 7.32694 6.95474 7.45033 6.86975 7.57018C6.84878 7.59987 6.82699 7.62874 6.8052 7.65761C6.87765 7.56146 6.80329 7.65788 6.79022 7.67368C6.73765 7.73769 6.68181 7.79898 6.62461 7.85863C6.5764 7.90902 6.52574 7.95669 6.47426 8.00326C6.44893 8.02614 6.4225 8.04821 6.39636 8.07027C6.30647 8.14545 6.47916 8.00953 6.38628 8.07926C6.27215 8.16478 6.14903 8.23751 6.02047 8.29852C5.9186 8.34673 6.12071 8.25957 6.01639 8.30043C5.9867 8.31187 5.95646 8.32195 5.9265 8.33175C5.86658 8.35164 5.80502 8.36607 5.74292 8.3786C5.71377 8.3846 5.604 8.39685 5.74482 8.38024C5.7135 8.38405 5.68163 8.38569 5.65003 8.38732C5.57595 8.39141 5.50186 8.38732 5.42804 8.38024C5.57949 8.39495 5.37711 8.36744 5.33761 8.3579C5.27606 8.34292 5.21586 8.32222 5.15648 8.30043C5.05134 8.26148 5.25508 8.3451 5.15239 8.29852C5.12298 8.28518 5.09411 8.2702 5.06551 8.25549C4.99741 8.22035 4.93231 8.17949 4.8683 8.137C4.84052 8.11848 4.81355 8.09887 4.78632 8.07898C4.69234 8.01034 4.86694 8.14408 4.77624 8.07C4.72285 8.02642 4.67219 7.97984 4.62207 7.93244C4.57113 7.88396 4.52292 7.83303 4.47553 7.78127C4.45156 7.75512 4.42841 7.72789 4.40525 7.70092C4.39027 7.68322 4.29058 7.55792 4.36712 7.65734C4.18054 7.41519 4.02801 7.14717 3.9019 6.86907C3.85042 6.75522 3.93976 6.96304 3.89236 6.84783C3.87847 6.81405 3.8654 6.77973 3.85232 6.74568C3.82645 6.67786 3.80329 6.60895 3.78123 6.53976C3.73438 6.39377 3.69816 6.2445 3.66956 6.09388C3.66329 6.0601 3.65784 6.02605 3.6524 5.99228C3.63387 5.87488 3.6652 6.10178 3.65185 5.98492C3.6445 5.91928 3.64014 5.85336 3.63741 5.78745C3.63442 5.71717 3.63551 5.6469 3.63823 5.57663C3.63959 5.53904 3.64286 5.50118 3.64613 5.46386C3.64831 5.43907 3.65103 5.41429 3.6543 5.3895C3.64531 5.4546 3.64504 5.46005 3.65349 5.40584C3.67718 5.26148 3.71695 5.11984 3.76625 4.98229C3.7736 4.96186 3.82045 4.84828 3.77197 4.96214C3.78613 4.92918 3.80166 4.89676 3.81719 4.86435C3.85341 4.78917 3.89509 4.71672 3.93894 4.64563C3.97626 4.58489 4.01766 4.52687 4.06015 4.46967C3.98742 4.56718 4.06069 4.47185 4.07459 4.45524C4.09747 4.428 4.12143 4.40185 4.1454 4.3757C4.19334 4.3234 4.24482 4.2741 4.29712 4.22616C4.32327 4.20219 4.35051 4.17931 4.37774 4.15643C4.4186 4.12348 4.41452 4.12647 4.36494 4.16488C4.38401 4.15071 4.40308 4.13655 4.42242 4.12293C4.53845 4.03931 4.6632 3.96849 4.79204 3.90666C4.81165 3.89713 4.92441 3.85028 4.81001 3.89713C4.84352 3.88351 4.87756 3.87125 4.91161 3.85899C4.99169 3.83039 5.07395 3.80779 5.15648 3.78763C5.19216 3.77891 5.22839 3.77183 5.26462 3.76475C5.28668 3.76039 5.41143 3.74214 5.28477 3.75903C5.3594 3.74922 5.43485 3.74459 5.51003 3.7416C5.58602 3.7386 5.66229 3.74105 5.73829 3.74514C5.77587 3.74732 5.81319 3.75086 5.85078 3.75467C5.90553 3.76121 5.90035 3.76039 5.83498 3.75222C5.85949 3.75603 5.88374 3.76012 5.90798 3.76475C6.0518 3.79063 6.19234 3.83257 6.32908 3.88378C6.4443 3.92709 6.2362 3.84156 6.34814 3.89141C6.38083 3.90612 6.41297 3.92191 6.44511 3.93798C6.51974 3.9753 6.59138 4.01806 6.66193 4.06273C6.69189 4.0818 6.72131 4.10223 6.75045 4.12266C6.76816 4.13492 6.86294 4.20955 6.76734 4.13383C6.82318 4.17795 6.87575 4.22562 6.9275 4.27437C6.97925 4.32313 7.02746 4.37516 7.07458 4.42827C7.09828 4.45469 7.12062 4.4822 7.14322 4.50998C7.06314 4.41193 7.16093 4.53613 7.17482 4.55602C7.23638 4.64372 7.28976 4.73688 7.33906 4.83194C7.35241 4.85781 7.42895 5.03323 7.38019 4.91447C7.40307 4.97031 7.42269 5.02751 7.44121 5.08498C7.47525 5.18984 7.4995 5.29744 7.51884 5.40557C7.52728 5.45977 7.52701 5.45433 7.51802 5.38923C7.52292 5.42627 7.52619 5.46386 7.52919 5.50118C7.53491 5.56464 7.53627 5.62783 7.53681 5.6913ZM7.53681 5.6913C7.53872 5.95115 7.75199 6.16796 8.01348 6.16796C8.2717 6.16796 8.49205 5.95115 8.49014 5.6913C8.47952 4.30978 7.4679 3.05847 6.08857 2.83348C5.38664 2.71908 4.6681 2.84656 4.05988 3.22108C3.47235 3.5828 3.04526 4.14799 2.82354 4.79734C2.39754 6.04539 2.95973 7.51489 3.80166 8.45569C4.23529 8.94025 4.80838 9.27392 5.45937 9.33684C6.10055 9.39894 6.71313 9.07127 7.17373 8.65425C7.57631 8.28981 7.88955 7.81069 8.10827 7.31659C8.33543 6.80315 8.48633 6.25567 8.48987 5.69103C8.49151 5.43117 8.2717 5.21436 8.01321 5.21436C7.75227 5.21463 7.53845 5.43145 7.53681 5.6913Z" stroke="#ed145b" stroke-width="0.2"/>
<path d="M5.59506 13.9588C4.2367 13.9588 2.87861 13.9588 1.52025 13.9588C1.25441 13.9588 0.988837 13.9588 0.722994 13.9588C0.881791 14.1176 1.04086 14.2767 1.19966 14.4355C1.19966 13.7965 1.19966 13.1575 1.19966 12.5185C1.19966 12.4474 1.20184 12.3763 1.20674 12.3052C1.20919 12.2679 1.21355 12.2305 1.21764 12.1935C1.2032 12.3202 1.21873 12.1962 1.22281 12.1736C1.23752 12.0895 1.25822 12.0064 1.28165 11.9241C1.30126 11.8544 1.32577 11.786 1.35138 11.7185C1.39496 11.6038 1.30916 11.8116 1.35927 11.7C1.37398 11.6673 1.39005 11.6351 1.40612 11.6033C1.43826 11.5395 1.47422 11.478 1.51154 11.4169C1.53006 11.3867 1.55021 11.357 1.5701 11.3276C1.58344 11.3077 1.67959 11.1813 1.60115 11.2813C1.68858 11.1696 1.78773 11.0678 1.89287 10.9724C1.91902 10.9487 1.94653 10.9258 1.97376 10.9032C2.06665 10.8259 1.89232 10.9629 1.98956 10.891C2.0563 10.8417 2.12657 10.797 2.19793 10.7545C2.25922 10.718 2.32323 10.6853 2.38751 10.6543C2.40712 10.6447 2.51962 10.5971 2.40522 10.6445C2.43845 10.6306 2.47249 10.6183 2.50627 10.6061C2.65526 10.5519 2.81052 10.5154 2.96686 10.4906C2.8353 10.5116 3.03278 10.4862 3.06329 10.484C3.11422 10.4805 3.16543 10.4794 3.21664 10.4794C3.27438 10.4794 3.33213 10.4794 3.39014 10.4794C3.52579 10.4794 3.66171 10.4794 3.79735 10.4794C3.68513 10.4328 3.57264 10.3863 3.46015 10.3397C4.05938 11.0669 4.65889 11.7942 5.25813 12.5215C5.42346 12.7222 5.76176 12.692 5.93227 12.5215C6.1292 12.3245 6.09733 12.0475 5.93227 11.8473C5.50926 11.3339 5.08598 10.8204 4.66298 10.307C4.4892 10.0962 4.31569 9.88563 4.14191 9.6748C3.99183 9.49258 3.72898 9.52581 3.51925 9.52581C3.31715 9.52581 3.11504 9.52118 2.91375 9.54379C2.22109 9.62196 1.58208 9.9224 1.09098 10.4206C0.598243 10.9209 0.324229 11.5755 0.256406 12.2679C0.226172 12.5781 0.246328 12.8984 0.246328 13.2092C0.246328 13.5916 0.246328 13.9741 0.246328 14.3565C0.246328 14.3829 0.246328 14.409 0.246328 14.4355C0.246328 14.6953 0.463143 14.9121 0.722994 14.9121C2.08135 14.9121 3.43944 14.9121 4.79781 14.9121C5.06365 14.9121 5.32922 14.9121 5.59506 14.9121C5.85491 14.9121 6.07173 14.6953 6.07173 14.4355C6.07173 14.1756 5.85491 13.9588 5.59506 13.9588Z" fill="#ed145b" stroke="#ed145b" stroke-width="0.2"/>
</svg>
