<?xml version="1.0" encoding="utf-8"?>
<!-- created with bpmn-js / http://bpmn.io -->
<!DOCTYPE svg PUBLIC "-//W3C//DTD SVG 1.1//EN" "http://www.w3.org/Graphics/SVG/1.1/DTD/svg11.dtd">
<svg xmlns="http://www.w3.org/2000/svg" xmlns:xlink="http://www.w3.org/1999/xlink" width="1584" height="171" viewBox="150 74 1584 171" version="1.1"><defs><marker id="sequenceflow-end-white-hsl_225_10_15_-93w7hljrl94t6k86aw7mt3cp9" viewBox="0 0 20 20" refX="11" refY="10" markerWidth="10" markerHeight="10" orient="auto"><path d="M 1 5 L 11 10 L 1 15 Z" style="fill: rgb(34, 36, 42); stroke-width: 1px; stroke-linecap: round; stroke-dasharray: 10000, 1; stroke: rgb(34, 36, 42);"/></marker></defs><g class="djs-group"><g class="djs-element djs-shape" data-element-id="TextAnnotation_12tnw20" transform="matrix(1 0 0 1 740 80)" style="display: block;"><g class="djs-visual"><rect x="0" y="0" width="280" height="31" rx="0" ry="0" style="stroke: none; stroke-width: 2px; fill: none;"/><path d="m 0, 0 m 10,0 l -10,0 l 0,31.000000000000004 l 10,0" style="fill: none; stroke-width: 2px; stroke: rgb(34, 36, 42);"/><text lineHeight="1.2" class="djs-label" style="font-family: Arial, sans-serif; font-size: 12px; font-weight: normal; fill: rgb(34, 36, 42);"><tspan x="5" y="15.799999999999999">Ex: PasswordAuthentication no</tspan></text></g><rect class="djs-hit djs-hit-all" x="0" y="0" width="280" height="31" style="fill: none; stroke-opacity: 0; stroke: white; stroke-width: 15px;"/><rect x="-6" y="-6" rx="3" width="292" height="43" class="djs-outline" style="fill: none;"/></g></g><g class="djs-group"><g class="djs-element djs-shape" data-element-id="TextAnnotation_0jech7q" transform="matrix(1 0 0 1 520 80)" style="display: block;"><g class="djs-visual"><rect x="0" y="0" width="170" height="33" rx="0" ry="0" style="stroke: none; stroke-width: 2px; fill: none;"/><path d="m 0, 0 m 10,0 l -10,0 l 0,33 l 10,0" style="fill: none; stroke-width: 2px; stroke: rgb(34, 36, 42);"/><text lineHeight="1.2" class="djs-label" style="font-family: Arial, sans-serif; font-size: 12px; font-weight: normal; fill: rgb(34, 36, 42);"><tspan x="5" y="15.799999999999999">Ex: ChrootDirectory "E:\"</tspan></text></g><rect class="djs-hit djs-hit-all" x="0" y="0" width="170" height="33" style="fill: none; stroke-opacity: 0; stroke: white; stroke-width: 15px;"/><rect x="-6" y="-6" rx="3" width="182" height="45" class="djs-outline" style="fill: none;"/></g></g><g class="djs-group"><g class="djs-element djs-connection" data-element-id="Flow_1ny0mvn" style="display: block;"><g class="djs-visual"><path d="m  1310,199L1370,199 " style="fill: none; stroke-width: 2px; stroke: rgb(34, 36, 42); stroke-linejoin: round; marker-end: url('#sequenceflow-end-white-hsl_225_10_15_-93w7hljrl94t6k86aw7mt3cp9');"/></g><polyline points="1310,199 1370,199 " class="djs-hit djs-hit-stroke" style="fill: none; stroke-opacity: 0; stroke: white; stroke-width: 15px;"/><rect x="1304" y="193" rx="3" width="72" height="12" class="djs-outline" style="fill: none;"/></g></g><g class="djs-group"><g class="djs-element djs-connection" data-element-id="Flow_1391sy3" style="display: block;"><g class="djs-visual"><path d="m  1150,199L1210,199 " style="fill: none; stroke-width: 2px; stroke: rgb(34, 36, 42); stroke-linejoin: round; marker-end: url('#sequenceflow-end-white-hsl_225_10_15_-93w7hljrl94t6k86aw7mt3cp9');"/></g><polyline points="1150,199 1210,199 " class="djs-hit djs-hit-stroke" style="fill: none; stroke-opacity: 0; stroke: white; stroke-width: 15px;"/><rect x="1144" y="193" rx="3" width="72" height="12" class="djs-outline" style="fill: none;"/></g></g><g class="djs-group"><g class="djs-element djs-connection" data-element-id="Flow_0b0ncpn" style="display: block;"><g class="djs-visual"><path d="m  990,199L1050,199 " style="fill: none; stroke-width: 2px; stroke: rgb(34, 36, 42); stroke-linejoin: round; marker-end: url('#sequenceflow-end-white-hsl_225_10_15_-93w7hljrl94t6k86aw7mt3cp9');"/></g><polyline points="990,199 1050,199 " class="djs-hit djs-hit-stroke" style="fill: none; stroke-opacity: 0; stroke: white; stroke-width: 15px;"/><rect x="984" y="193" rx="3" width="72" height="12" class="djs-outline" style="fill: none;"/></g></g><g class="djs-group"><g class="djs-element djs-connection" data-element-id="Flow_1ncnk2f" style="display: block;"><g class="djs-visual"><path d="m  830,199L890,199 " style="fill: none; stroke-width: 2px; stroke: rgb(34, 36, 42); stroke-linejoin: round; marker-end: url('#sequenceflow-end-white-hsl_225_10_15_-93w7hljrl94t6k86aw7mt3cp9');"/></g><polyline points="830,199 890,199 " class="djs-hit djs-hit-stroke" style="fill: none; stroke-opacity: 0; stroke: white; stroke-width: 15px;"/><rect x="824" y="193" rx="3" width="72" height="12" class="djs-outline" style="fill: none;"/></g></g><g class="djs-group"><g class="djs-element djs-connection" data-element-id="Flow_1j8b5vi" style="display: block;"><g class="djs-visual"><path d="m  670,199L730,199 " style="fill: none; stroke-width: 2px; stroke: rgb(34, 36, 42); stroke-linejoin: round; marker-end: url('#sequenceflow-end-white-hsl_225_10_15_-93w7hljrl94t6k86aw7mt3cp9');"/></g><polyline points="670,199 730,199 " class="djs-hit djs-hit-stroke" style="fill: none; stroke-opacity: 0; stroke: white; stroke-width: 15px;"/><rect x="664" y="193" rx="3" width="72" height="12" class="djs-outline" style="fill: none;"/></g></g><g class="djs-group"><g class="djs-element djs-connection" data-element-id="Flow_19936mn" style="display: block;"><g class="djs-visual"><path d="m  510,199L570,199 " style="fill: none; stroke-width: 2px; stroke: rgb(34, 36, 42); stroke-linejoin: round; marker-end: url('#sequenceflow-end-white-hsl_225_10_15_-93w7hljrl94t6k86aw7mt3cp9');"/></g><polyline points="510,199 570,199 " class="djs-hit djs-hit-stroke" style="fill: none; stroke-opacity: 0; stroke: white; stroke-width: 15px;"/><rect x="504" y="193" rx="3" width="72" height="12" class="djs-outline" style="fill: none;"/></g></g><g class="djs-group"><g class="djs-element djs-connection" data-element-id="Flow_06yxvnv" style="display: block;"><g class="djs-visual"><path d="m  350,199L410,199 " style="fill: none; stroke-width: 2px; stroke: rgb(34, 36, 42); stroke-linejoin: round; marker-end: url('#sequenceflow-end-white-hsl_225_10_15_-93w7hljrl94t6k86aw7mt3cp9');"/></g><polyline points="350,199 410,199 " class="djs-hit djs-hit-stroke" style="fill: none; stroke-opacity: 0; stroke: white; stroke-width: 15px;"/><rect x="344" y="193" rx="3" width="72" height="12" class="djs-outline" style="fill: none;"/></g></g><g class="djs-group"><g class="djs-element djs-connection" data-element-id="Flow_1bgyivi" style="display: block;"><g class="djs-visual"><path d="m  192,199L250,199 " style="fill: none; stroke-width: 2px; stroke: rgb(34, 36, 42); stroke-linejoin: round; marker-end: url('#sequenceflow-end-white-hsl_225_10_15_-93w7hljrl94t6k86aw7mt3cp9');"/></g><polyline points="192,199 250,199 " class="djs-hit djs-hit-stroke" style="fill: none; stroke-opacity: 0; stroke: white; stroke-width: 15px;"/><rect x="186" y="193" rx="3" width="70" height="12" class="djs-outline" style="fill: none;"/></g></g><g class="djs-group"><g class="djs-element djs-connection" data-element-id="Flow_0acimpk" style="display: block;"><g class="djs-visual"><path d="m  1470,199L1530,199 " style="fill: none; stroke-width: 2px; stroke: rgb(34, 36, 42); stroke-linejoin: round; marker-end: url('#sequenceflow-end-white-hsl_225_10_15_-93w7hljrl94t6k86aw7mt3cp9');"/></g><polyline points="1470,199 1530,199 " class="djs-hit djs-hit-stroke" style="fill: none; stroke-opacity: 0; stroke: white; stroke-width: 15px;"/><rect x="1464" y="193" rx="3" width="72" height="12" class="djs-outline" style="fill: none;"/></g></g><g class="djs-group"><g class="djs-element djs-connection" data-element-id="Flow_0zzx1uu" style="display: block;"><g class="djs-visual"><path d="m  1630,199L1692,199 " style="fill: none; stroke-width: 2px; stroke: rgb(34, 36, 42); stroke-linejoin: round; marker-end: url('#sequenceflow-end-white-hsl_225_10_15_-93w7hljrl94t6k86aw7mt3cp9');"/></g><polyline points="1630,199 1692,199 " class="djs-hit djs-hit-stroke" style="fill: none; stroke-opacity: 0; stroke: white; stroke-width: 15px;"/><rect x="1624" y="193" rx="3" width="74" height="12" class="djs-outline" style="fill: none;"/></g></g><g class="djs-group"><g class="djs-element djs-shape" data-element-id="StartEvent_1o3ya1l" transform="matrix(1 0 0 1 156 181)" style="display: block;"><g class="djs-visual"><circle cx="18" cy="18" r="18" style="stroke: rgb(34, 36, 42); stroke-width: 2px; fill: white; fill-opacity: 0.95;"/></g><rect class="djs-hit djs-hit-all" x="0" y="0" width="36" height="36" style="fill: none; stroke-opacity: 0; stroke: white; stroke-width: 15px;"/><rect x="-6" y="-6" rx="3" width="48" height="48" class="djs-outline" style="fill: none;"/></g></g><g class="djs-group"><g class="djs-element djs-shape" data-element-id="Activity_0sq1v3v" transform="matrix(1 0 0 1 250 159)" style="display: block;"><g class="djs-visual"><rect x="0" y="0" width="100" height="80" rx="10" ry="10" style="stroke: rgb(34, 36, 42); stroke-width: 2px; fill: white; fill-opacity: 0.95;"/><text lineHeight="1.2" class="djs-label" style="font-family: Arial, sans-serif; font-size: 12px; font-weight: normal; fill: rgb(34, 36, 42);"><tspan x="23.318750381469727" y="29.200000000000003">1) Instalar </tspan><tspan x="20.98124885559082" y="43.6">OpenSSH-</tspan><tspan x="32.32499885559082" y="58">Server</tspan></text></g><rect class="djs-hit djs-hit-all" x="0" y="0" width="100" height="80" style="fill: none; stroke-opacity: 0; stroke: white; stroke-width: 15px;"/><rect x="-6" y="-6" rx="3" width="112" height="92" class="djs-outline" style="fill: none;"/></g></g><g class="djs-group"><g class="djs-element djs-shape" data-element-id="Activity_0988xpi" transform="matrix(1 0 0 1 410 159)" style="display: block;"><g class="djs-visual"><rect x="0" y="0" width="100" height="80" rx="10" ry="10" style="stroke: rgb(34, 36, 42); stroke-width: 2px; fill: white; fill-opacity: 0.95;"/><text lineHeight="1.2" class="djs-label" style="font-family: Arial, sans-serif; font-size: 12px; font-weight: normal; fill: rgb(34, 36, 42);"><tspan x="20.649999618530273" y="7.599999999999996">2) Alterar o </tspan><tspan x="21.975000381469727" y="21.999999999999993">arquivo de </tspan><tspan x="15.637500762939453" y="36.39999999999999">configuração </tspan><tspan x="6.637500762939453" y="50.79999999999999">para qual será o </tspan><tspan x="8.643749237060547" y="65.19999999999999">diretório raiz ao</tspan><tspan x="18.98124885559082" y="79.6">se conectar</tspan></text></g><rect class="djs-hit djs-hit-all" x="0" y="0" width="100" height="80" style="fill: none; stroke-opacity: 0; stroke: white; stroke-width: 15px;"/><rect x="-6" y="-6" rx="3" width="112" height="92" class="djs-outline" style="fill: none;"/></g></g><g class="djs-group"><g class="djs-element djs-shape" data-element-id="Activity_0qrf2us" transform="matrix(1 0 0 1 570 159)" style="display: block;"><g class="djs-visual"><rect x="0" y="0" width="100" height="80" rx="10" ry="10" style="stroke: rgb(34, 36, 42); stroke-width: 2px; fill: white; fill-opacity: 0.95;"/><text lineHeight="1.2" class="djs-label" style="font-family: Arial, sans-serif; font-size: 12px; font-weight: normal; fill: rgb(34, 36, 42);"><tspan x="20.649999618530273" y="7.599999999999996">3) Alterar o </tspan><tspan x="21.975000381469727" y="21.999999999999993">arquivo de </tspan><tspan x="7.299999237060547" y="36.39999999999999">configuração do</tspan><tspan x="23.724218368530273" y="50.79999999999999">SSH para </tspan><tspan x="12.637500762939453" y="65.19999999999999">somente login </tspan><tspan x="23.649999618530273" y="79.6">por chave</tspan></text></g><rect class="djs-hit djs-hit-all" x="0" y="0" width="100" height="80" style="fill: none; stroke-opacity: 0; stroke: white; stroke-width: 15px;"/><rect x="-6" y="-6" rx="3" width="112" height="92" class="djs-outline" style="fill: none;"/></g></g><g class="djs-group"><g class="djs-element djs-shape" data-element-id="Activity_1348dgn" transform="matrix(1 0 0 1 730 159)" style="display: block;"><g class="djs-visual"><rect x="0" y="0" width="100" height="80" rx="10" ry="10" style="stroke: rgb(34, 36, 42); stroke-width: 2px; fill: white; fill-opacity: 0.95;"/><text lineHeight="1.2" class="djs-label" style="font-family: Arial, sans-serif; font-size: 12px; font-weight: normal; fill: rgb(34, 36, 42);"><tspan x="12.981250762939453" y="14.799999999999999">2) Inicializar o</tspan><tspan x="22.649999618530273" y="29.199999999999996">serviço do </tspan><tspan x="22.98124885559082" y="43.599999999999994">OpenSSH </tspan><tspan x="11.96875" y="57.99999999999999">Authentication </tspan><tspan x="33.9873046875" y="72.39999999999999">Agent</tspan></text></g><rect class="djs-hit djs-hit-all" x="0" y="0" width="100" height="80" style="fill: none; stroke-opacity: 0; stroke: white; stroke-width: 15px;"/><rect x="-6" y="-6" rx="3" width="112" height="92" class="djs-outline" style="fill: none;"/></g></g><g class="djs-group"><g class="djs-element djs-shape" data-element-id="Activity_0jj83hg" transform="matrix(1 0 0 1 890 159)" style="display: block;"><g class="djs-visual"><rect x="0" y="0" width="100" height="80" rx="10" ry="10" style="stroke: rgb(34, 36, 42); stroke-width: 2px; fill: white; fill-opacity: 0.95;"/><text lineHeight="1.2" class="djs-label" style="font-family: Arial, sans-serif; font-size: 12px; font-weight: normal; fill: rgb(34, 36, 42);"><tspan x="12.981250762939453" y="22">3) Inicializar o</tspan><tspan x="22.649999618530273" y="36.4">serviço do </tspan><tspan x="8.981250762939453" y="50.8">OpenSSH SSH </tspan><tspan x="32.32499885559082" y="65.19999999999999">Server</tspan></text></g><rect class="djs-hit djs-hit-all" x="0" y="0" width="100" height="80" style="fill: none; stroke-opacity: 0; stroke: white; stroke-width: 15px;"/><rect x="-6" y="-6" rx="3" width="112" height="92" class="djs-outline" style="fill: none;"/></g></g><g class="djs-group"><g class="djs-element djs-shape" data-element-id="Activity_086ib3a" transform="matrix(1 0 0 1 1050 159)" style="display: block;"><g class="djs-visual"><rect x="0" y="0" width="100" height="80" rx="10" ry="10" style="stroke: rgb(34, 36, 42); stroke-width: 2px; fill: white; fill-opacity: 0.95;"/><text lineHeight="1.2" class="djs-label" style="font-family: Arial, sans-serif; font-size: 12px; font-weight: normal; fill: rgb(34, 36, 42);"><tspan x="17.987499237060547" y="7.599999999999996">4) Inicializar </tspan><tspan x="6.978515625" y="21.999999999999993">automaticament</tspan><tspan x="25.987499237060547" y="36.39999999999999">e serviço </tspan><tspan x="22.98124885559082" y="50.79999999999999">OpenSSH </tspan><tspan x="11.96875" y="65.19999999999999">Authentication </tspan><tspan x="33.9873046875" y="79.6">Agent</tspan></text></g><rect class="djs-hit djs-hit-all" x="0" y="0" width="100" height="80" style="fill: none; stroke-opacity: 0; stroke: white; stroke-width: 15px;"/><rect x="-6" y="-6" rx="3" width="112" height="92" class="djs-outline" style="fill: none;"/></g></g><g class="djs-group"><g class="djs-element djs-shape" data-element-id="Activity_1py52cr" transform="matrix(1 0 0 1 1210 159)" style="display: block;"><g class="djs-visual"><rect x="0" y="0" width="100" height="80" rx="10" ry="10" style="stroke: rgb(34, 36, 42); stroke-width: 2px; fill: white; fill-opacity: 0.95;"/><text lineHeight="1.2" class="djs-label" style="font-family: Arial, sans-serif; font-size: 12px; font-weight: normal; fill: rgb(34, 36, 42);"><tspan x="17.987499237060547" y="14.799999999999999">5) Inicializar </tspan><tspan x="6.978515625" y="29.199999999999996">automaticament</tspan><tspan x="25.987499237060547" y="43.599999999999994">e serviço </tspan><tspan x="8.981250762939453" y="57.99999999999999">OpenSSH SSH </tspan><tspan x="32.32499885559082" y="72.39999999999999">Server</tspan></text></g><rect class="djs-hit djs-hit-all" x="0" y="0" width="100" height="80" style="fill: none; stroke-opacity: 0; stroke: white; stroke-width: 15px;"/><rect x="-6" y="-6" rx="3" width="112" height="92" class="djs-outline" style="fill: none;"/></g></g><g class="djs-group"><g class="djs-element djs-shape" data-element-id="Activity_07uoh3e" transform="matrix(1 0 0 1 1370 159)" style="display: block;"><g class="djs-visual"><rect x="0" y="0" width="100" height="80" rx="10" ry="10" style="stroke: rgb(34, 36, 42); stroke-width: 2px; fill: white; fill-opacity: 0.95;"/><text lineHeight="1.2" class="djs-label" style="font-family: Arial, sans-serif; font-size: 12px; font-weight: normal; fill: rgb(34, 36, 42);"><tspan x="19.65625" y="22">6) Gerar as </tspan><tspan x="17.981250762939453" y="36.4">chaves com </tspan><tspan x="19.3125" y="50.8">ssh-keygen </tspan><tspan x="21.306249618530273" y="65.19999999999999">-t ed25519</tspan></text></g><rect class="djs-hit djs-hit-all" x="0" y="0" width="100" height="80" style="fill: none; stroke-opacity: 0; stroke: white; stroke-width: 15px;"/><rect x="-6" y="-6" rx="3" width="112" height="92" class="djs-outline" style="fill: none;"/></g></g><g class="djs-group"><g class="djs-element djs-shape" data-element-id="Activity_1n6swvn" transform="matrix(1 0 0 1 1530 159)" style="display: block;"><g class="djs-visual"><rect x="0" y="0" width="100" height="80" rx="10" ry="10" style="stroke: rgb(34, 36, 42); stroke-width: 2px; fill: white; fill-opacity: 0.95;"/><text lineHeight="1.2" class="djs-label" style="font-family: Arial, sans-serif; font-size: 12px; font-weight: normal; fill: rgb(34, 36, 42);"><tspan x="20.056249618530273" y="7.599999999999996">7) Copiar a </tspan><tspan x="13.04550552368164" y="21.999999999999993">chave pública </tspan><tspan x="11.637500762939453" y="36.39999999999999">para o arquivo </tspan><tspan x="9.637500762939453" y="50.79999999999999">autorized_keys </tspan><tspan x="11.974998474121094" y="65.19999999999999">dentro de .ssh </tspan><tspan x="21.975000381469727" y="79.6">do usuário</tspan></text></g><rect class="djs-hit djs-hit-all" x="0" y="0" width="100" height="80" style="fill: none; stroke-opacity: 0; stroke: white; stroke-width: 15px;"/><rect x="-6" y="-6" rx="3" width="112" height="92" class="djs-outline" style="fill: none;"/></g></g><g class="djs-group"><g class="djs-element djs-shape" data-element-id="Event_1dfvl99" transform="matrix(1 0 0 1 1692 181)" style="display: block;"><g class="djs-visual"><circle cx="18" cy="18" r="18" style="stroke: rgb(34, 36, 42); stroke-width: 4px; fill: white; fill-opacity: 0.95;"/></g><rect class="djs-hit djs-hit-all" x="0" y="0" width="36" height="36" style="fill: none; stroke-opacity: 0; stroke: white; stroke-width: 15px;"/><rect x="-6" y="-6" rx="3" width="48" height="48" class="djs-outline" style="fill: none;"/></g></g><g class="djs-group"><g class="djs-element djs-connection" data-element-id="Association_1bcowuu" style="display: block;"><g class="djs-visual"><polyline points="669,166 751,111 " style="fill: none; stroke: rgb(34, 36, 42); stroke-width: 2px; stroke-dasharray: 0.5, 5; stroke-linecap: round; stroke-linejoin: round;"/></g><polyline points="669,166 751,111 " class="djs-hit djs-hit-stroke" style="fill: none; stroke-opacity: 0; stroke: white; stroke-width: 15px;"/><rect x="663" y="105" rx="3" width="94" height="67" class="djs-outline" style="fill: none;"/></g></g><g class="djs-group"><g class="djs-element djs-connection" data-element-id="Association_15faspn" style="display: block;"><g class="djs-visual"><polyline points="500,159 545,113 " style="fill: none; stroke: rgb(34, 36, 42); stroke-width: 2px; stroke-dasharray: 0.5, 5; stroke-linecap: round; stroke-linejoin: round;"/></g><polyline points="500,159 545,113 " class="djs-hit djs-hit-stroke" style="fill: none; stroke-opacity: 0; stroke: white; stroke-width: 15px;"/><rect x="494" y="107" rx="3" width="57" height="58" class="djs-outline" style="fill: none;"/></g></g></svg>