<?xml version="1.0" encoding="utf-8"?>
<!-- created with bpmn-js / http://bpmn.io -->
<!DOCTYPE svg PUBLIC "-//W3C//DTD SVG 1.1//EN" "http://www.w3.org/Graphics/SVG/1.1/DTD/svg11.dtd">
<svg xmlns="http://www.w3.org/2000/svg" xmlns:xlink="http://www.w3.org/1999/xlink" width="2524" height="302" viewBox="150 74 2524 302" version="1.1"><defs><marker id="sequenceflow-end-white-black-eazu1bqkqu1eaglvwb7dh2ff9" viewBox="0 0 20 20" refX="11" refY="10" markerWidth="10" markerHeight="10" orient="auto"><path d="M 1 5 L 11 10 L 1 15 Z" style="fill: black; stroke-width: 1px; stroke-linecap: round; stroke-dasharray: 10000, 1; stroke: black;"/></marker></defs><g class="djs-group"><g class="djs-element djs-shape" data-element-id="TextAnnotation_0sanmcw" transform="matrix(1 0 0 1 2150 80)" style="display: block;"><g class="djs-visual"><rect x="0" y="0" width="180" height="40" rx="0" ry="0" style="stroke: none; stroke-width: 2px; fill: none;"/><path d="m 0, 0 m 10,0 l -10,0 l 0,40 l 10,0" style="fill: none; stroke-width: 2px; stroke: black;"/><text lineHeight="1.2" class="djs-label" style="font-family: Arial, sans-serif; font-size: 12px; font-weight: normal; fill: black;"><tspan x="5" y="15.799999999999999">Se puder ser outro dev </tspan><tspan x="5" y="30.199999999999996">diferente, melhor ainda!</tspan></text></g><rect class="djs-hit djs-hit-all" x="0" y="0" width="180" height="40" style="fill: none; stroke-opacity: 0; stroke: white; stroke-width: 15px;"/><rect x="-6" y="-6" width="192" height="52" class="djs-outline" style="fill: none;"/></g></g><g class="djs-group"><g class="djs-element djs-connection" data-element-id="Flow_1u6gmd8" style="display: block;"><g class="djs-visual"><path d="m  192,179L290,179 " style="fill: none; stroke-width: 2px; stroke: black; stroke-linejoin: round; marker-end: url('#sequenceflow-end-white-black-eazu1bqkqu1eaglvwb7dh2ff9');"/></g><polyline points="192,179 290,179 " class="djs-hit djs-hit-stroke" style="fill: none; stroke-opacity: 0; stroke: white; stroke-width: 15px;"/><rect x="186" y="173" width="110" height="12" class="djs-outline" style="fill: none;"/></g></g><g class="djs-group"><g class="djs-element djs-connection" data-element-id="Flow_0asuacd" style="display: block;"><g class="djs-visual"><path d="m  390,179L470,179 " style="fill: none; stroke-width: 2px; stroke: black; stroke-linejoin: round; marker-end: url('#sequenceflow-end-white-black-eazu1bqkqu1eaglvwb7dh2ff9');"/></g><polyline points="390,179 470,179 " class="djs-hit djs-hit-stroke" style="fill: none; stroke-opacity: 0; stroke: white; stroke-width: 15px;"/><rect x="384" y="173" width="92" height="12" class="djs-outline" style="fill: none;"/></g></g><g class="djs-group"><g class="djs-element djs-connection" data-element-id="Flow_0nj192u" style="display: block;"><g class="djs-visual"><path d="m  340,219L340,280 L240,280 L240,179 L290,179 " style="fill: none; stroke-width: 2px; stroke: black; stroke-linejoin: round; marker-end: url('#sequenceflow-end-white-black-eazu1bqkqu1eaglvwb7dh2ff9');"/></g><polyline points="340,219 340,280 240,280 240,179 290,179 " class="djs-hit djs-hit-stroke" style="fill: none; stroke-opacity: 0; stroke: white; stroke-width: 15px;"/><rect x="234" y="173" width="112" height="113" class="djs-outline" style="fill: none;"/></g></g><g class="djs-group"><g class="djs-element djs-connection" data-element-id="Flow_074zc49" style="display: block;"><g class="djs-visual"><path d="m  570,179L650,179 " style="fill: none; stroke-width: 2px; stroke: black; stroke-linejoin: round; marker-end: url('#sequenceflow-end-white-black-eazu1bqkqu1eaglvwb7dh2ff9');"/></g><polyline points="570,179 650,179 " class="djs-hit djs-hit-stroke" style="fill: none; stroke-opacity: 0; stroke: white; stroke-width: 15px;"/><rect x="564" y="173" width="92" height="12" class="djs-outline" style="fill: none;"/></g></g><g class="djs-group"><g class="djs-element djs-connection" data-element-id="Flow_1o31jfo" style="display: block;"><g class="djs-visual"><path d="m  750,179L830,179 " style="fill: none; stroke-width: 2px; stroke: black; stroke-linejoin: round; marker-end: url('#sequenceflow-end-white-black-eazu1bqkqu1eaglvwb7dh2ff9');"/></g><polyline points="750,179 830,179 " class="djs-hit djs-hit-stroke" style="fill: none; stroke-opacity: 0; stroke: white; stroke-width: 15px;"/><rect x="744" y="173" width="92" height="12" class="djs-outline" style="fill: none;"/></g></g><g class="djs-group"><g class="djs-element djs-connection" data-element-id="Flow_1xtolrd" style="display: block;"><g class="djs-visual"><path d="m  930,179L1010,179 " style="fill: none; stroke-width: 2px; stroke: black; stroke-linejoin: round; marker-end: url('#sequenceflow-end-white-black-eazu1bqkqu1eaglvwb7dh2ff9');"/></g><polyline points="930,179 1010,179 " class="djs-hit djs-hit-stroke" style="fill: none; stroke-opacity: 0; stroke: white; stroke-width: 15px;"/><rect x="924" y="173" width="92" height="12" class="djs-outline" style="fill: none;"/></g></g><g class="djs-group"><g class="djs-element djs-connection" data-element-id="Flow_1s9c3q7" style="display: block;"><g class="djs-visual"><path d="m  750,179L1060,179 L1060,280 L340,280 L340,219 " style="fill: none; stroke-width: 2px; stroke: black; stroke-linejoin: round; marker-end: url('#sequenceflow-end-white-black-eazu1bqkqu1eaglvwb7dh2ff9');"/></g><polyline points="750,179 1060,179 1060,280 340,280 340,219 " class="djs-hit djs-hit-stroke" style="fill: none; stroke-opacity: 0; stroke: white; stroke-width: 15px;"/><rect x="334" y="173" width="732" height="113" class="djs-outline" style="fill: none;"/></g></g><g class="djs-group"><g class="djs-element djs-connection" data-element-id="Flow_10fgij5" style="display: block;"><g class="djs-visual"><path d="m  1110,179L1190,179 " style="fill: none; stroke-width: 2px; stroke: black; stroke-linejoin: round; marker-end: url('#sequenceflow-end-white-black-eazu1bqkqu1eaglvwb7dh2ff9');"/></g><polyline points="1110,179 1190,179 " class="djs-hit djs-hit-stroke" style="fill: none; stroke-opacity: 0; stroke: white; stroke-width: 15px;"/><rect x="1104" y="173" width="92" height="12" class="djs-outline" style="fill: none;"/></g></g><g class="djs-group"><g class="djs-element djs-connection" data-element-id="Flow_0394hs4" style="display: block;"><g class="djs-visual"><path d="m  1290,179L1370,179 " style="fill: none; stroke-width: 2px; stroke: black; stroke-linejoin: round; marker-end: url('#sequenceflow-end-white-black-eazu1bqkqu1eaglvwb7dh2ff9');"/></g><polyline points="1290,179 1370,179 " class="djs-hit djs-hit-stroke" style="fill: none; stroke-opacity: 0; stroke: white; stroke-width: 15px;"/><rect x="1284" y="173" width="92" height="12" class="djs-outline" style="fill: none;"/></g></g><g class="djs-group"><g class="djs-element djs-connection" data-element-id="Flow_1lhjww4" style="display: block;"><g class="djs-visual"><path d="m  1470,179L1550,179 " style="fill: none; stroke-width: 2px; stroke: black; stroke-linejoin: round; marker-end: url('#sequenceflow-end-white-black-eazu1bqkqu1eaglvwb7dh2ff9');"/></g><polyline points="1470,179 1550,179 " class="djs-hit djs-hit-stroke" style="fill: none; stroke-opacity: 0; stroke: white; stroke-width: 15px;"/><rect x="1464" y="173" width="92" height="12" class="djs-outline" style="fill: none;"/></g></g><g class="djs-group"><g class="djs-element djs-connection" data-element-id="Flow_0tj2nyo" style="display: block;"><g class="djs-visual"><path d="m  1650,179L1730,179 " style="fill: none; stroke-width: 2px; stroke: black; stroke-linejoin: round; marker-end: url('#sequenceflow-end-white-black-eazu1bqkqu1eaglvwb7dh2ff9');"/></g><polyline points="1650,179 1730,179 " class="djs-hit djs-hit-stroke" style="fill: none; stroke-opacity: 0; stroke: white; stroke-width: 15px;"/><rect x="1644" y="173" width="92" height="12" class="djs-outline" style="fill: none;"/></g></g><g class="djs-group"><g class="djs-element djs-connection" data-element-id="Flow_0zzf25d" style="display: block;"><g class="djs-visual"><path d="m  1830,179L1910,179 " style="fill: none; stroke-width: 2px; stroke: black; stroke-linejoin: round; marker-end: url('#sequenceflow-end-white-black-eazu1bqkqu1eaglvwb7dh2ff9');"/></g><polyline points="1830,179 1910,179 " class="djs-hit djs-hit-stroke" style="fill: none; stroke-opacity: 0; stroke: white; stroke-width: 15px;"/><rect x="1824" y="173" width="92" height="12" class="djs-outline" style="fill: none;"/></g></g><g class="djs-group"><g class="djs-element djs-connection" data-element-id="Flow_0t2pik7" style="display: block;"><g class="djs-visual"><path d="m  2010,179L2090,179 " style="fill: none; stroke-width: 2px; stroke: black; stroke-linejoin: round; marker-end: url('#sequenceflow-end-white-black-eazu1bqkqu1eaglvwb7dh2ff9');"/></g><polyline points="2010,179 2090,179 " class="djs-hit djs-hit-stroke" style="fill: none; stroke-opacity: 0; stroke: white; stroke-width: 15px;"/><rect x="2004" y="173" width="92" height="12" class="djs-outline" style="fill: none;"/></g></g><g class="djs-group"><g class="djs-element djs-connection" data-element-id="Flow_1bo9n4h" style="display: block;"><g class="djs-visual"><path d="m  1780,219L1780,280 L340,280 L340,219 " style="fill: none; stroke-width: 2px; stroke: black; stroke-linejoin: round; marker-end: url('#sequenceflow-end-white-black-eazu1bqkqu1eaglvwb7dh2ff9');"/></g><polyline points="1780,219 1780,280 340,280 340,219 " class="djs-hit djs-hit-stroke" style="fill: none; stroke-opacity: 0; stroke: white; stroke-width: 15px;"/><rect x="334" y="213" width="1452" height="73" class="djs-outline" style="fill: none;"/></g></g><g class="djs-group"><g class="djs-element djs-connection" data-element-id="Flow_1hzwkfp" style="display: block;"><g class="djs-visual"><path d="m  2190,179L2270,179 " style="fill: none; stroke-width: 2px; stroke: black; stroke-linejoin: round; marker-end: url('#sequenceflow-end-white-black-eazu1bqkqu1eaglvwb7dh2ff9');"/></g><polyline points="2190,179 2270,179 " class="djs-hit djs-hit-stroke" style="fill: none; stroke-opacity: 0; stroke: white; stroke-width: 15px;"/><rect x="2184" y="173" width="92" height="12" class="djs-outline" style="fill: none;"/></g></g><g class="djs-group"><g class="djs-element djs-connection" data-element-id="Flow_05bx226" style="display: block;"><g class="djs-visual"><path d="m  2370,179L2450,179 " style="fill: none; stroke-width: 2px; stroke: black; stroke-linejoin: round; marker-end: url('#sequenceflow-end-white-black-eazu1bqkqu1eaglvwb7dh2ff9');"/></g><polyline points="2370,179 2450,179 " class="djs-hit djs-hit-stroke" style="fill: none; stroke-opacity: 0; stroke: white; stroke-width: 15px;"/><rect x="2364" y="173" width="92" height="12" class="djs-outline" style="fill: none;"/></g></g><g class="djs-group"><g class="djs-element djs-connection" data-element-id="Flow_1l0i05r" style="display: block;"><g class="djs-visual"><path d="m  2550,179L2632,179 " style="fill: none; stroke-width: 2px; stroke: black; stroke-linejoin: round; marker-end: url('#sequenceflow-end-white-black-eazu1bqkqu1eaglvwb7dh2ff9');"/></g><polyline points="2550,179 2632,179 " class="djs-hit djs-hit-stroke" style="fill: none; stroke-opacity: 0; stroke: white; stroke-width: 15px;"/><rect x="2544" y="173" width="94" height="12" class="djs-outline" style="fill: none;"/></g></g><g class="djs-group"><g class="djs-element djs-shape" data-element-id="StartEvent_1519fw3" transform="matrix(1 0 0 1 156 161)" style="display: block;"><g class="djs-visual"><circle cx="18" cy="18" r="18" style="stroke: black; stroke-width: 2px; fill: white; fill-opacity: 0.95;"/></g><rect class="djs-hit djs-hit-all" x="0" y="0" width="36" height="36" style="fill: none; stroke-opacity: 0; stroke: white; stroke-width: 15px;"/><rect x="-6" y="-6" width="48" height="48" class="djs-outline" style="fill: none;"/></g></g><g class="djs-group"><g class="djs-element djs-shape" data-element-id="Activity_0djbyts" transform="matrix(1 0 0 1 470 139)" style="display: block;"><g class="djs-visual"><rect x="0" y="0" width="100" height="80" rx="10" ry="10" style="stroke: black; stroke-width: 2px; fill: white; fill-opacity: 0.95;"/><text lineHeight="1.2" class="djs-label" style="font-family: Arial, sans-serif; font-size: 12px; font-weight: normal; fill: black;"><tspan x="13.974998474121094" y="22">2) Apresentar </tspan><tspan x="20.087499618530273" y="36.4">para o P.O. </tspan><tspan x="15.72031021118164" y="50.8">como ficou a </tspan><tspan x="25.3125" y="65.19999999999999">alteração</tspan></text></g><rect class="djs-hit djs-hit-all" x="0" y="0" width="100" height="80" style="fill: none; stroke-opacity: 0; stroke: white; stroke-width: 15px;"/><rect x="-6" y="-6" width="112" height="92" class="djs-outline" style="fill: none;"/></g></g><g class="djs-group"><g class="djs-element djs-shape" data-element-id="Activity_06ph17m" transform="matrix(1 0 0 1 1010 139)" style="display: block;"><g class="djs-visual"><rect x="0" y="0" width="100" height="80" rx="10" ry="10" style="stroke: black; stroke-width: 2px; fill: white; fill-opacity: 0.95;"/><text lineHeight="1.2" class="djs-label" style="font-family: Arial, sans-serif; font-size: 12px; font-weight: normal; fill: black;"><tspan x="18.643749237060547" y="29.200000000000003">5) Aguardar </tspan><tspan x="11.643749237060547" y="43.6">validações em </tspan><tspan x="13.96875" y="58">homologação</tspan></text></g><rect class="djs-hit djs-hit-all" x="0" y="0" width="100" height="80" style="fill: none; stroke-opacity: 0; stroke: white; stroke-width: 15px;"/><rect x="-6" y="-6" width="112" height="92" class="djs-outline" style="fill: none;"/></g></g><g class="djs-group"><g class="djs-element djs-shape" data-element-id="Activity_0i9rfm0" transform="matrix(1 0 0 1 1190 139)" style="display: block;"><g class="djs-visual"><rect x="0" y="0" width="100" height="80" rx="10" ry="10" style="stroke: black; stroke-width: 2px; fill: white; fill-opacity: 0.95;"/><text lineHeight="1.2" class="djs-label" style="font-family: Arial, sans-serif; font-size: 12px; font-weight: normal; fill: black;"><tspan x="21.318750381469727" y="29.200000000000003">6) Verificar </tspan><tspan x="7.962497711181641" y="43.6">necessidade de </tspan><tspan x="21.449413299560547" y="58">pré-deploy</tspan></text></g><rect class="djs-hit djs-hit-all" x="0" y="0" width="100" height="80" style="fill: none; stroke-opacity: 0; stroke: white; stroke-width: 15px;"/><rect x="-6" y="-6" width="112" height="92" class="djs-outline" style="fill: none;"/></g></g><g class="djs-group"><g class="djs-element djs-shape" data-element-id="Activity_1an9a72" transform="matrix(1 0 0 1 1370 139)" style="display: block;"><g class="djs-visual"><rect x="0" y="0" width="100" height="80" rx="10" ry="10" style="stroke: black; stroke-width: 2px; fill: white; fill-opacity: 0.95;"/><text lineHeight="1.2" class="djs-label" style="font-family: Arial, sans-serif; font-size: 12px; font-weight: normal; fill: black;"><tspan x="11.981250762939453" y="14.799999999999999">6) Abrir merge </tspan><tspan x="21.383398056030273" y="29.199999999999996">request da </tspan><tspan x="23.050390243530273" y="43.599999999999994">branch da </tspan><tspan x="12.974998474121094" y="57.99999999999999">alteração/pré-</tspan><tspan x="14.107616424560547" y="72.39999999999999">deploy p/ dev</tspan></text></g><rect class="djs-hit djs-hit-all" x="0" y="0" width="100" height="80" style="fill: none; stroke-opacity: 0; stroke: white; stroke-width: 15px;"/><rect x="-6" y="-6" width="112" height="92" class="djs-outline" style="fill: none;"/></g></g><g class="djs-group"><g class="djs-element djs-shape" data-element-id="Activity_1y3e0pl" transform="matrix(1 0 0 1 1550 139)" style="display: block;"><g class="djs-visual"><rect x="0" y="0" width="100" height="80" rx="10" ry="10" style="stroke: black; stroke-width: 2px; fill: white; fill-opacity: 0.95;"/><text lineHeight="1.2" class="djs-label" style="font-family: Arial, sans-serif; font-size: 12px; font-weight: normal; fill: black;"><tspan x="6.318748474121094" y="22">7) Marcar algum</tspan><tspan x="11.3115234375" y="36.4">dev para rever </tspan><tspan x="21.714452743530273" y="50.8">o que está </tspan><tspan x="6.306247711181641" y="65.19999999999999">sendo mesclado</tspan></text></g><rect class="djs-hit djs-hit-all" x="0" y="0" width="100" height="80" style="fill: none; stroke-opacity: 0; stroke: white; stroke-width: 15px;"/><rect x="-6" y="-6" width="112" height="92" class="djs-outline" style="fill: none;"/></g></g><g class="djs-group"><g class="djs-element djs-shape" data-element-id="Activity_0brr1yq" transform="matrix(1 0 0 1 1730 139)" style="display: block;"><g class="djs-visual"><rect x="0" y="0" width="100" height="80" rx="10" ry="10" style="stroke: black; stroke-width: 2px; fill: white; fill-opacity: 0.95;"/><text lineHeight="1.2" class="djs-label" style="font-family: Arial, sans-serif; font-size: 12px; font-weight: normal; fill: black;"><tspan x="7.719333648681641" y="22">8) Explicar para</tspan><tspan x="10.30624771118164" y="36.4">o dev marcado </tspan><tspan x="9.70859146118164" y="50.8">do que se trata </tspan><tspan x="5.9765625" y="65.19999999999999">o merge request</tspan></text></g><rect class="djs-hit djs-hit-all" x="0" y="0" width="100" height="80" style="fill: none; stroke-opacity: 0; stroke: white; stroke-width: 15px;"/><rect x="-6" y="-6" width="112" height="92" class="djs-outline" style="fill: none;"/></g></g><g class="djs-group"><g class="djs-element djs-shape" data-element-id="Activity_0kc8m56" transform="matrix(1 0 0 1 1910 139)" style="display: block;"><g class="djs-visual"><rect x="0" y="0" width="100" height="80" rx="10" ry="10" style="stroke: black; stroke-width: 2px; fill: white; fill-opacity: 0.95;"/><text lineHeight="1.2" class="djs-label" style="font-family: Arial, sans-serif; font-size: 12px; font-weight: normal; fill: black;"><tspan x="6.981250762939453" y="22">9) Abrir o merge</tspan><tspan x="21.383398056030273" y="36.4">request da </tspan><tspan x="6.374607086181641" y="50.8">branch dev para</tspan><tspan x="24.975000381469727" y="65.19999999999999">produção</tspan></text></g><rect class="djs-hit djs-hit-all" x="0" y="0" width="100" height="80" style="fill: none; stroke-opacity: 0; stroke: white; stroke-width: 15px;"/><rect x="-6" y="-6" width="112" height="92" class="djs-outline" style="fill: none;"/></g></g><g class="djs-group"><g class="djs-element djs-shape" data-element-id="Activity_1j84wrm" transform="matrix(1 0 0 1 2090 139)" style="display: block;"><g class="djs-visual"><rect x="0" y="0" width="100" height="80" rx="10" ry="10" style="stroke: black; stroke-width: 2px; fill: white; fill-opacity: 0.95;"/><text lineHeight="1.2" class="djs-label" style="font-family: Arial, sans-serif; font-size: 12px; font-weight: normal; fill: black;"><tspan x="20.987499237060547" y="14.799999999999999">10) Marcar </tspan><tspan x="8.37851333618164" y="29.199999999999996">algum dev para </tspan><tspan x="19.643749237060547" y="43.599999999999994">rever o que </tspan><tspan x="20.643749237060547" y="57.99999999999999">está sendo </tspan><tspan x="24.318750381469727" y="72.39999999999999">mesclado</tspan></text></g><rect class="djs-hit djs-hit-all" x="0" y="0" width="100" height="80" style="fill: none; stroke-opacity: 0; stroke: white; stroke-width: 15px;"/><rect x="-6" y="-6" width="112" height="92" class="djs-outline" style="fill: none;"/></g></g><g class="djs-group"><g class="djs-element djs-shape" data-element-id="Activity_1aanatw" transform="matrix(1 0 0 1 2270 139)" style="display: block;"><g class="djs-visual"><rect x="0" y="0" width="100" height="80" rx="10" ry="10" style="stroke: black; stroke-width: 2px; fill: white; fill-opacity: 0.95;"/><text lineHeight="1.2" class="djs-label" style="font-family: Arial, sans-serif; font-size: 12px; font-weight: normal; fill: black;"><tspan x="16.424999237060547" y="36.4">11) Executar </tspan><tspan x="11.249412536621094" y="50.8">pipeline CI/CD</tspan></text></g><rect class="djs-hit djs-hit-all" x="0" y="0" width="100" height="80" style="fill: none; stroke-opacity: 0; stroke: white; stroke-width: 15px;"/><rect x="-6" y="-6" width="112" height="92" class="djs-outline" style="fill: none;"/></g></g><g class="djs-group"><g class="djs-element djs-shape" data-element-id="Activity_1g46qig" transform="matrix(1 0 0 1 2450 139)" style="display: block;"><g class="djs-visual"><rect x="0" y="0" width="100" height="80" rx="10" ry="10" style="stroke: black; stroke-width: 2px; fill: white; fill-opacity: 0.95;"/><text lineHeight="1.2" class="djs-label" style="font-family: Arial, sans-serif; font-size: 12px; font-weight: normal; fill: black;"><tspan x="23.424999237060547" y="29.200000000000003">12) Testar </tspan><tspan x="12.3125" y="43.6">alterações em </tspan><tspan x="24.975000381469727" y="58">produção</tspan></text></g><rect class="djs-hit djs-hit-all" x="0" y="0" width="100" height="80" style="fill: none; stroke-opacity: 0; stroke: white; stroke-width: 15px;"/><rect x="-6" y="-6" width="112" height="92" class="djs-outline" style="fill: none;"/></g></g><g class="djs-group"><g class="djs-element djs-shape" data-element-id="Event_1htiw3q" transform="matrix(1 0 0 1 2632 161)" style="display: block;"><g class="djs-visual"><circle cx="18" cy="18" r="18" style="stroke: black; stroke-width: 4px; fill: white; fill-opacity: 0.95;"/></g><rect class="djs-hit djs-hit-all" x="0" y="0" width="36" height="36" style="fill: none; stroke-opacity: 0; stroke: white; stroke-width: 15px;"/><rect x="-6" y="-6" width="48" height="48" class="djs-outline" style="fill: none;"/></g></g><g class="djs-group"><g class="djs-element djs-shape" data-element-id="Activity_0fgod3f" transform="matrix(1 0 0 1 290 139)" style="display: block;"><g class="djs-visual"><rect x="0" y="0" width="100" height="80" rx="10" ry="10" style="stroke: black; stroke-width: 2px; fill: white; fill-opacity: 0.95;"/><text lineHeight="1.2" class="djs-label" style="font-family: Arial, sans-serif; font-size: 12px; font-weight: normal; fill: black;"><tspan x="20.987499237060547" y="22">1) Realizar </tspan><tspan x="5.712497711181641" y="36.4">Code Review da </tspan><tspan x="25.3125" y="50.8">alteração</tspan><tspan x="48.331249952316284" y="65.19999999999999">.</tspan></text><rect x="0" y="0" width="14" height="14" rx="0" ry="0" transform="matrix(1 0 0 1 42.5 60)" style="stroke: black; stroke-width: 1px; fill: white;"/><path d="m42.5,60 m 7,2 l 0,10 m -5,-5 l 10,0" data-marker="sub-process" style="fill: white; stroke-width: 2px; stroke: black;"/></g><rect x="-6" y="-6" width="112" height="92" class="djs-outline" style="fill: none;"/><rect class="djs-hit djs-hit-all" x="0" y="0" width="100" height="80" style="fill: none; stroke-opacity: 0; stroke: white; stroke-width: 15px;"/></g></g><g class="djs-group"><g class="djs-element djs-shape" data-element-id="Flow_0nj192u_label" transform="matrix(1 0 0 1 247 223)" style="display: block;"><g class="djs-visual"><text lineHeight="1.2" class="djs-label" style="font-family: Arial, sans-serif; font-size: 11px; font-weight: normal; fill: black;"><tspan x="30.48378849029541" y="9.899999999999999">Esse </tspan><tspan x="7.077243804931641" y="23.099999999999998">subprocesso 1 </tspan><tspan x="0" y="36.3">pode durar várias</tspan><tspan x="22.625730514526367" y="49.5">sessões</tspan></text></g><rect class="djs-hit djs-hit-all" x="0" y="0" width="86" height="53" style="fill: none; stroke-opacity: 0; stroke: white; stroke-width: 15px;"/><rect x="-6" y="-6" width="98" height="65" class="djs-outline" style="fill: none;"/></g></g><g class="djs-group"><g class="djs-element djs-shape" data-element-id="Activity_1r939wn" transform="matrix(1 0 0 1 650 139)" style="display: block;"><g class="djs-visual"><rect x="0" y="0" width="100" height="80" rx="10" ry="10" style="stroke: black; stroke-width: 2px; fill: white; fill-opacity: 0.95;"/><text lineHeight="1.2" class="djs-label" style="font-family: Arial, sans-serif; font-size: 12px; font-weight: normal; fill: black;"><tspan x="18.987499237060547" y="36.4">3) Subir em </tspan><tspan x="13.96875" y="50.8">homologação</tspan></text><rect x="0" y="0" width="14" height="14" rx="0" ry="0" transform="matrix(1 0 0 1 42.5 60)" style="stroke: black; stroke-width: 1px; fill: white;"/><path d="m42.5,60 m 7,2 l 0,10 m -5,-5 l 10,0" data-marker="sub-process" style="fill: white; stroke-width: 2px; stroke: black;"/></g><rect x="-6" y="-6" width="112" height="92" class="djs-outline" style="fill: none;"/><rect class="djs-hit djs-hit-all" x="0" y="0" width="100" height="80" style="fill: none; stroke-opacity: 0; stroke: white; stroke-width: 15px;"/></g></g><g class="djs-group"><g class="djs-element djs-shape" data-element-id="Activity_1r03b21" transform="matrix(1 0 0 1 830 139)" style="display: block;"><g class="djs-visual"><rect x="0" y="0" width="100" height="80" rx="10" ry="10" style="stroke: black; stroke-width: 2px; fill: white; fill-opacity: 0.95;"/><text lineHeight="1.2" class="djs-label" style="font-family: Arial, sans-serif; font-size: 12px; font-weight: normal; fill: black;"><tspan x="8.974998474121094" y="14.799999999999999">4) Anotar nome </tspan><tspan x="23.3125" y="29.199999999999996">da branch </tspan><tspan x="17.96875" y="43.599999999999994">aguardando </tspan><tspan x="24.643749237060547" y="57.99999999999999">validação</tspan><tspan x="48.331249952316284" y="72.39999999999999">.</tspan></text><rect x="0" y="0" width="14" height="14" rx="0" ry="0" transform="matrix(1 0 0 1 42.5 60)" style="stroke: black; stroke-width: 1px; fill: white;"/><path d="m42.5,60 m 7,2 l 0,10 m -5,-5 l 10,0" data-marker="sub-process" style="fill: white; stroke-width: 2px; stroke: black;"/></g><rect x="-6" y="-6" width="112" height="92" class="djs-outline" style="fill: none;"/><rect class="djs-hit djs-hit-all" x="0" y="0" width="100" height="80" style="fill: none; stroke-opacity: 0; stroke: white; stroke-width: 15px;"/></g></g><g class="djs-group"><g class="djs-element djs-shape" data-element-id="Flow_1s9c3q7_label" transform="matrix(1 0 0 1 1226 290)" style="display: block;"><g class="djs-visual"><text lineHeight="1.2" class="djs-label" style="font-family: Arial, sans-serif; font-size: 11px; font-weight: normal; fill: black;"><tspan x="5.363136291503906" y="9.899999999999999">Caso seja pego </tspan><tspan x="0" y="23.099999999999998">algo no item 5, ou</tspan><tspan x="8.728126525878906" y="36.3">8, volta para o </tspan><tspan x="13.621192932128906" y="49.5">processo de </tspan><tspan x="0.9187507629394531" y="62.7">desenvolvimento, </tspan><tspan x="31.800002098083496" y="75.9">etc...</tspan></text></g><rect class="djs-hit djs-hit-all" x="0" y="0" width="88" height="80" style="fill: none; stroke-opacity: 0; stroke: white; stroke-width: 15px;"/><rect x="-6" y="-6" width="100" height="92" class="djs-outline" style="fill: none;"/></g></g><g class="djs-group"><g class="djs-element djs-connection" data-element-id="Association_1atx3iv" style="display: block;"><g class="djs-visual"><polyline points="2169,139 2183,120 " style="fill: none; stroke: black; stroke-width: 2px; stroke-dasharray: 0.5, 5; stroke-linecap: round; stroke-linejoin: round;"/></g><polyline points="2169,139 2183,120 " class="djs-hit djs-hit-stroke" style="fill: none; stroke-opacity: 0; stroke: white; stroke-width: 15px;"/><rect x="2163" y="114" width="26" height="31" class="djs-outline" style="fill: none;"/></g></g></svg>